<?xml version="1.0" encoding="UTF-8" standalone="no"?>
<!-- Created with Inkscape (http://www.inkscape.org/) -->

<svg
   xmlns:dc="http://purl.org/dc/elements/1.1/"
   xmlns:cc="http://creativecommons.org/ns#"
   xmlns:rdf="http://www.w3.org/1999/02/22-rdf-syntax-ns#"
   xmlns:svg="http://www.w3.org/2000/svg"
   xmlns="http://www.w3.org/2000/svg"
   xmlns:sodipodi="http://sodipodi.sourceforge.net/DTD/sodipodi-0.dtd"
   xmlns:inkscape="http://www.inkscape.org/namespaces/inkscape"
   id="svg2"
   version="1.1"
   inkscape:version="0.48.4 r9939"
   width="168"
   height="68"
   sodipodi:docname="logo.svg"
   enable-background="new">
  <metadata
     id="metadata8">
    <rdf:RDF>
      <cc:Work
         rdf:about="">
        <dc:format>image/svg+xml</dc:format>
        <dc:type
           rdf:resource="http://purl.org/dc/dcmitype/StillImage" />
        <dc:title />
      </cc:Work>
    </rdf:RDF>
  </metadata>
  <defs
     id="defs6">
    <marker
       inkscape:stockid="Arrow1Lstart"
       orient="auto"
       refY="0.0"
       refX="0.0"
       id="Arrow1Lstart"
       style="overflow:visible">
      <path
         id="path6333"
         d="M 0.0,0.0 L 5.0,-5.0 L -12.5,0.0 L 5.0,5.0 L 0.0,0.0 z "
         style="fill-rule:evenodd;stroke:#000000;stroke-width:1.0pt"
         transform="scale(0.8) translate(12.5,0)" />
    </marker>
    <filter
       inkscape:collect="always"
       id="filter3874">
      <feGaussianBlur
         inkscape:collect="always"
         stdDeviation="1.2377452"
         id="feGaussianBlur3876" />
    </filter>
    <filter
       id="filter3917"
       inkscape:label="Simple blur"
       inkscape:menu="ABCs"
       inkscape:menu-tooltip="Simple Gaussian blur, same as the blur slider in Fill and Stroke dialog"
       color-interpolation-filters="sRGB">
      <feGaussianBlur
         id="feGaussianBlur3919"
         stdDeviation="1" />
    </filter>
    <filter
       inkscape:collect="always"
       id="filter3933"
       x="-0.0047522228"
       width="1.0095044"
       y="-0.18769631"
       height="1.3753926">
      <feGaussianBlur
         inkscape:collect="always"
         stdDeviation="0.41598103"
         id="feGaussianBlur3935" />
    </filter>
  </defs>
  <sodipodi:namedview
     pagecolor="#ffffff"
     bordercolor="#666666"
     borderopacity="1"
     objecttolerance="10"
     gridtolerance="10"
     guidetolerance="10"
     inkscape:pageopacity="0"
     inkscape:pageshadow="2"
     inkscape:window-width="1285"
     inkscape:window-height="744"
     id="namedview4"
     showgrid="false"
     inkscape:zoom="9.2532784"
     inkscape:cx="69.356541"
     inkscape:cy="12.386039"
     inkscape:window-x="81"
     inkscape:window-y="24"
     inkscape:window-maximized="1"
     inkscape:current-layer="g3891"
     borderlayer="false"
     showborder="true"
     fit-margin-right="0"
     inkscape:showpageshadow="false" />
  <g
     style="opacity:0.5;display:inline"
     inkscape:label="Copie de Logo"
     id="g3014"
     inkscape:groupmode="layer"
     sodipodi:insensitive="true">
    <g
       inkscape:export-ydpi="90"
       inkscape:export-xdpi="90"
       inkscape:export-filename="/home/kent/g2987.png"
       transform="matrix(0.95701654,0,0,0.79187095,2.6378402,6.6102032)"
       id="g3016"
       style="filter:url(#filter3874)">
      <path
         sodipodi:nodetypes="sssssssssssssssssssssssssssssssscssscsccsssssscssscccccsssssscssssssssssssssssssssssss"
         inkscape:connector-curvature="0"
         id="path3018"
         d="m 19,67 c 10.725,-0.311006 19.034631,-0.663236 18.465847,-0.782733 -1.585204,-0.333038 -0.799003,-51.386797 0.807042,-52.407083 1.471975,-0.935115 5.947051,-1.046752 8.145324,-0.203195 1.202318,0.461373 1.585461,2.08069 1.5971,6.75 0.02377,9.536473 0.751146,9.693825 8.218608,1.777922 3.608323,-3.825012 7.477239,-7.445145 8.597591,-8.044739 C 68.427233,12.165801 76,12.948109 76,15.243938 76,15.810416 73.075,19.542072 69.5,23.536506 65.925,27.530939 63,31.31844 63,31.953174 63,33.021864 75.544915,52.933791 77.99248,55.75 79.240742,57.186272 91,57.500718 91,56.097825 91,55.601629 89.659672,54.728409 88.021493,54.157337 82.69114,52.299166 78.609336,42.131361 82.581787,40.606989 c 3.385305,-1.299063 5.905924,-0.465367 9.084336,3.00465 2.790916,3.04697 3.738533,3.503615 6.060988,2.920716 5.951619,-1.49376 4.771539,-4.665759 -2.408408,-6.473689 -6.702026,-1.68759 -10.08165,-3.699576 -11.801776,-7.025933 -3.386399,-6.548573 -0.424064,-14.081451 6.333814,-16.10616 10.185939,-3.051782 21.663419,2.045852 20.963559,9.310804 -0.29326,3.044166 -0.58896,3.282728 -4.41635,3.562892 -3.46809,0.253862 -4.36031,-0.09387 -5.77306,-2.25 -1.679761,-2.563646 -6.83993,-3.629378 -8.054863,-1.663576 -0.905846,1.465691 1.761282,2.991011 7.311231,4.181261 10.510102,2.254014 15.212862,11.047991 10.638572,19.893704 -0.74206,1.434986 -2.51259,3.231694 -3.93452,3.992684 C 105.16339,54.715331 104,55.711919 104,56.16898 c 0,1.409056 15.72086,1.003898 16.25716,-0.41898 0.25913,-0.6875 0.55679,-10.220133 0.66146,-21.183628 0.10468,-10.963496 0.41737,-20.300996 0.69487,-20.75 0.69247,-1.120442 7.54304,-1.002627 9.38651,0.161427 0.9926,0.626773 1.66913,3.213482 2,7.646897 l 0.5,6.699725 8.25,-8.247688 c 4.5375,-4.536228 8.25,-8.662303 8.25,-9.169056 0,-0.555426 -27.50415,-0.819356 -69.25,-0.664522 l -62.488225,0.558492 c 0,0 -4.247313,-0.03932 -5.605804,1.316713 C 11.472465,13.29972 11.5,17 11.5,17 l 0,6.5 8.290161,0.291091 c 7.629849,0.267906 8.376722,0.48107 9.376916,2.676258 0.597715,1.311842 0.811111,3.483423 0.474212,4.825735 -0.672767,2.680516 -4.113965,3.675358 -12.7843,3.69591 -3.304064,0.0078 -4.818054,0.46716 -5.25,1.592793 C 11.273145,37.451771 11,44.426771 11,52.081787 L 11,66 6.019052,66 C 1.683004,66 0.96700301,65.708685 0.48894818,63.75 0.18691245,62.5125 0.06583904,47.810276 0.21989615,31.07839 L 0.5,0.65678069 84.25,0.54529619 168,0.4338117 139.02447,29.859652 168,68 83.75,67.782733 C 37.4125,67.663236 8.275,67.311006 19,67 z m 134.5,-1 c -1.1,-0.472686 -1.64879,-0.891058 -1.21953,-0.929715 0.42926,-0.03866 -1.39686,-3.332785 -4.05805,-7.320285 -2.66119,-3.9875 -6.09966,-9.440023 -7.64103,-12.116718 l -2.8025,-4.866717 -2.29929,2.366717 C 133.45059,45.221795 133.14033,46.67549 132.84016,55.5 132.65307,61 132.05,65.830609 131.5,66.234687 c -0.55,0.404078 4.625,0.70995 11.5,0.679715 C 150.90212,66.87965 154.76434,66.543305 153.5,66 z m 13.22917,0.395833 c -0.3323,-0.332291 -1.1948,-0.367818 -1.91667,-0.07895 -0.79773,0.319226 -0.56078,0.556183 0.60417,0.604167 1.05416,0.04342 1.64479,-0.192928 1.3125,-0.525217 z M 138.44116,29.987909 c -0.0386,-15.2625 28.09483,-19.667109 27.69951,-18.663909 -0.39532,1.003199 -1.05201,1.778092 -1.45932,1.721984 -0.98981,-0.136349 -15.9432,15.632454 -17.05982,17.990096 -0.68894,1.45464 1.0247,4.725241 7.94281,15.159366 4.85171,7.317505 9.18452,13.454554 9.62847,13.637887 0.44396,0.183334 0.80719,1.420834 0.80719,2.75 C 166,63.9125 166.225,65 166.5,65 166.775,65 138.47982,45.250409 138.44116,29.987909 z M 62,55.494569 C 62,53.550011 54.79467,42 53.581582,42 50.889969,42 49,45.501555 49,50.488321 c 0,2.84809 0.3,5.478346 0.666667,5.845012 C 50.033333,56.7 52.958333,57 56.166667,57 60.694539,57 62,56.663094 62,55.494569 z"
         style="fill:#e6cba2;fill-opacity:1;stroke:#000000;stroke-width:0.60000002;stroke-miterlimit:6.4000001;stroke-opacity:0.39215686;stroke-dasharray:none;marker-start:none;marker-mid:none;marker-end:none" />
      <path
         sodipodi:nodetypes="ccccssssssssssssssssssssssssssssssssscssssssccccccccssssssccccccscssssssssssssccsssssssssssssssssssssssssssssssscsssssssssssssssssssssssssssssssssssssssss"
         inkscape:connector-curvature="0"
         id="path3020"
         d="m 64.5,67 65,-0.521906 L 83.25,66.239047 37,66 37,54.158112 C 37,34.152756 38.189258,15 39.431457,15 c 0.706231,0 0.979389,1.489067 0.737825,4.022107 -0.572273,6.000848 0.58104,11.010934 2.376127,10.322094 1.471757,-0.564766 1.809887,-1.553168 2.945001,-8.608659 0.524051,-3.257322 0.308119,-3.874519 -1.602853,-4.581434 C 41.92643,15.42864 41.875155,15.261885 43.429773,14.665322 46.397182,13.526621 47,14.849474 47,22.5 c 0,4.262497 0.461996,7.667495 1.093276,8.057648 0.601302,0.371625 3.101789,-1.289318 5.556638,-3.690983 2.822179,-2.761037 4.201606,-3.631263 3.751489,-2.366665 -0.39153,1.1 -1.128558,2.540138 -1.637841,3.200307 -0.699439,0.906664 0.0113,1.053038 2.905235,0.598327 2.107162,-0.33109 4.191064,-1.208728 4.630893,-1.950307 C 63.73952,25.606747 64.605461,25 65.224004,25 c 0.618543,0 0.146183,1.041503 -1.04969,2.314451 C 62.978441,28.587399 62,30.342928 62,31.215625 c 0,1.786214 14.471346,24.836529 16.312666,25.983215 2.102253,1.309182 41.750734,0.826677 42.174394,-0.513244 0.20617,-0.652078 0.63913,-10.129343 0.96213,-21.060589 0.323,-10.931246 0.83063,-20.268746 1.12806,-20.75 0.80248,-1.298447 6.83785,-1.059908 8.22275,0.324993 0.69804,0.698039 1.2,4.044444 1.2,8 0,3.74 0.37156,6.8 0.82569,6.8 0.45412,0 1.91662,-1.169782 3.25,-2.599516 1.33337,-1.429734 4.22431,-3.984806 6.42431,-5.677938 2.2,-1.693131 3.4375,-2.458349 2.75,-1.700483 -1.70455,1.879005 -1.57802,5.914834 0.20691,6.599775 1.01082,0.387888 1.28176,1.434815 0.88488,3.41921 -0.47961,2.398053 0.94051,5.170375 8.78995,17.159547 5.14909,7.864673 9.70089,14.449405 10.11512,14.632738 0.41423,0.183334 0.75314,1.195834 0.75314,2.25 0,1.66805 -0.74585,1.91512 -5.75,1.904738 l -5.75,-0.01193 -8,-12.948956 c -4.4,-7.121926 -8.52984,-12.966558 -9.17742,-12.988071 -0.64758,-0.02151 -2.11008,1.146571 -3.25,2.595744 C 132.28103,44.91244 132,46.663893 132,55.551525 c 0,7.289774 -0.36375,10.428586 -1.25,10.786194 -0.6875,0.277413 7.18151,0.539913 17.4867,0.583334 L 166.9734,67 140.95332,28.892745 167.52751,-0.5 134.16188,32.297582 168,68 83.75,67.760953 -0.5,67.521906 z m -3.081787,-9.606989 c 2.338039,-0.89719 1.970312,-2.59745 -2.005108,-9.271012 C 54.306192,39.548994 53.325262,38.920542 50.385463,42.338262 48.466772,44.568873 48,46.242044 48,50.889097 c 0,3.177663 0.3,6.07757 0.666667,6.444236 0.833497,0.833498 10.615699,0.879279 12.751546,0.05968 z M 1,33.5 1,1 83.5,1 166,1 l 0,5.0453131 0,5.0453129 -3.75,-0.677973 c -2.0625,-0.372885 -3.91955,-0.8253287 -4.12678,-1.0054304 -0.20724,-0.1801017 -1.62586,0.3184636 -3.15251,1.1079224 -2.33347,1.206685 -2.85946,1.217155 -3.30131,0.06571 C 151.23114,9.4387772 139.54194,9.2188927 81.321905,9.2575574 31.778243,9.29046 11.286626,9.6228277 10.765313,10.401964 c -1.2740504,1.904148 -0.8632989,12.271825 0.532071,13.42988 0.713561,0.592203 4.876061,1.209803 9.25,1.372444 7.892249,0.293467 7.955062,0.317046 8.274874,3.106184 0.493114,4.300545 -1.001274,5.218629 -9.010767,5.535802 -4.02132,0.159243 -7.68427,0.654255 -8.139888,1.100026 -0.455618,0.445772 -0.995036,7.170838 -1.198705,14.944592 C 10.269228,57.664647 9.8279486,64.469368 9.4922774,65.012496 9.1566061,65.555623 7.1085237,66 4.940983,66 L 1,66 z M 6.9292288,18.6129 C 6.5819578,12.340377 7.9121159,8.0515843 10.377594,7.4944285 11.544917,7.2306335 15.2,6.898971 18.5,6.7574007 23.747533,6.5322809 24.5,6.2491777 24.5,4.5 24.5,2.6777807 23.772733,2.4838395 16.318373,2.3181976 7.6781707,2.1262052 2.3649504,3.0650854 2.7035499,4.7240244 2.8155024,5.2725257 3.2147143,9.7962028 3.5906876,14.77664 4.1415174,22.073365 4.5541926,23.724567 5.715605,23.278891 6.7041679,22.899544 7.0854051,21.43381 6.9292288,18.6129 z M 51.654923,5.4568719 c 0.872344,-2.2732921 0.03614,-2.6542053 -5.728644,-2.6095512 -5.344005,0.041395 -7.669305,1.1414216 -6.48013,3.065547 C 40.538874,7.680933 50.950698,7.292053 51.654923,5.4568719 z M 64.8,5.8 C 66.736486,3.8635137 66.199571,3 63.059017,3 59.500319,3 58.302224,4.49534 60.728968,5.9081309 63.023527,7.2439674 63.365105,7.2348947 64.8,5.8 z M 91.677102,5.3990752 C 92.490674,3.278941 90.336463,2.0341075 85.821429,2.0153128 82.124448,1.9999234 78.485595,4.3586588 79.549826,6.0806198 79.86234,6.5862789 82.580599,7 85.590402,7 c 4.095163,0 5.626974,-0.402897 6.0867,-1.6009248 z M 110,6.5817875 c 0,-0.2300169 0.27314,-1.1300169 0.60699,-2 C 111.06261,3.3944564 110.57858,3 108.66601,3 c -2.7278,0 -4.17348,1.3698774 -3.16601,3 0.58874,0.952595 4.5,1.4582671 4.5,0.5817875 z m 8.81955,-2.3420032 c 0.33519,-2.3493984 -1.2212,-2.9046298 -3.71527,-1.3253963 -1.88986,1.1966513 -0.57335,4.3216761 1.6427,3.8993029 0.96416,-0.1837672 1.89682,-1.3420252 2.07257,-2.5739066 z m 27.00275,1.2712475 c 0.23363,-0.2336266 0.15196,-1.1357145 -0.18147,-2.0046398 -0.4936,-1.2862799 -1.58507,-1.4570381 -5.87354,-0.9189006 -5.78381,0.7257791 -7.38246,1.6081261 -6.24581,3.4472675 0.52227,0.8450545 2.42235,1.0121447 6.31163,0.555036 3.06043,-0.3596931 5.75556,-0.8451365 5.98919,-1.0787631 z M 88,53.248446 C 84.185056,51.342668 80.552796,45.32897 81.587709,42.63203 81.993153,41.57546 83.386355,41 85.538895,41 88.091872,41 89.359767,41.696505 91,44 c 1.747839,2.454614 2.844595,3 6.03291,3 7.43616,0 7.22202,-5.922726 -0.272624,-7.540196 -6.47586,-1.3976 -10.842082,-3.717301 -12.298704,-6.534095 C 82.402863,28.944584 82.645853,24.622808 85.083703,21.860784 86.879896,19.825741 87.063922,19.77596 86.417418,21.5 85.211323,24.716305 85.395311,29.273755 86.75,29.738155 87.535874,30.00756 88,29.217009 88,27.609013 88,24.402381 92.240519,22 97.90065,22 c 2.64123,0 4.30677,-0.548218 4.90315,-1.613889 1.97239,-3.524472 7.1962,1.310786 7.1962,6.660942 0,3.128635 -6.45275,2.717786 -8.59196,-0.547053 -1.28572,-1.962263 -2.480452,-2.5 -5.554435,-2.5 -2.633385,0 -4.11339,0.513414 -4.517772,1.567217 -0.87754,2.286833 0.669061,3.364945 7.271965,5.069174 6.616722,1.707797 11.933322,5.997842 12.902702,10.4114 0.86386,3.933132 -1.82832,9.565879 -5.70032,11.926574 C 101.57519,55.556362 92.88756,55.690056 88,53.248446 z M 148.85987,25.305694 C 150.13476,22.874961 152,21.378257 152,22.785995 c 0,0.497217 -0.96548,1.761274 -2.14551,2.809017 -2.13061,1.89176 -2.13752,1.889751 -0.99462,-0.289318 z M 153,21.329302 c 0,-1.277323 3.83833,-4.824304 4.50219,-4.160448 0.26946,0.26946 -0.6333,1.545142 -2.00613,2.83485 C 154.12323,21.293412 153,21.889931 153,21.329302 z M 72.596556,16.156231 c -0.346049,-0.559919 -0.1419,-1.31919 0.453663,-1.687268 1.537485,-0.950218 2.529468,0.35135 1.245982,1.634836 -0.71818,0.71818 -1.277526,0.735435 -1.699645,0.05243 z M 65.8125,15.316886 c 0.721875,-0.288871 1.584375,-0.253344 1.916667,0.07895 0.332291,0.332292 -0.258334,0.568641 -1.3125,0.52522 -1.164943,-0.04798 -1.4019,-0.284941 -0.604167,-0.60417 z"
         style="fill:#d6b494;fill-opacity:0.81568627;stroke:#000000;stroke-width:0.25;stroke-miterlimit:6.4000001;stroke-opacity:0.39215686;stroke-dasharray:none" />
      <path
         sodipodi:nodetypes="cccccccccsssssssssssssssssssssssssscscssssssssccccssssscsssscsssscsssssscssssssssscccsssssssssssccsssscssssssssssccssssssscs"
         inkscape:connector-curvature="0"
         id="path3022"
         d="M 83.236705,67.25008 166.97341,66.988582 145.33619,28.160827 167.52751,-0.5 137.08378,34.234139 168,68 83.75,67.755789 -0.5,67.511579 z M 38.630286,63.75 c -0.331637,-1.2375 -0.609121,-8.405357 -0.616631,-15.928571 -0.01647,-16.499163 0.431099,-17.371133 8.404983,-16.374861 3.766028,0.470534 5.605383,0.24368 7.084079,-0.873704 2.721244,-2.056322 6.418964,-1.965215 7.18935,0.177136 0.346114,0.9625 4.044491,7.270403 8.218615,14.017562 6.385404,10.321526 8.240852,12.585226 11.696505,14.270072 3.466411,1.690091 4.870532,1.854428 9,1.053349 2.691047,-0.522039 5.680313,-0.962321 6.642813,-0.978405 0.9625,-0.01608 3.6625,-0.08276 6,-0.148167 2.3375,-0.06541 5.4259,0.331285 6.86311,0.881538 3.6271,1.388674 10.74729,0.28342 11.88644,-1.84511 0.50794,-0.949094 0.98896,-10.426153 1.06893,-21.060131 0.08,-10.633977 0.37042,-19.9209 0.64545,-20.637606 0.62764,-1.635611 5.48292,-1.706255 7.08607,-0.103102 0.67696,0.676963 1.2,3.920218 1.2,7.440983 0,3.432541 0.48888,6.543129 1.08641,6.912419 0.59752,0.36929 2.53144,-0.729153 4.2976,-2.440983 C 141.17225,23.47148 145,24.401515 145,30.205859 c 0,1.830784 2.89666,7.234623 8.33538,15.55 C 166.13646,65.32769 166.35811,66 160.00972,66 c -3.60684,0 -4.32361,-0.456451 -7.45898,-4.75 -1.90778,-2.6125 -5.78846,-8.6875 -8.62372,-13.5 -2.83527,-4.8125 -5.75583,-8.75 -6.49014,-8.75 -0.7343,0 -2.46327,1.479114 -3.84215,3.286921 -2.20317,2.8885 -2.52816,4.373373 -2.68111,12.25 -0.0957,4.929693 -0.3886,9.525579 -0.65082,10.213079 -0.37173,0.974574 -10.453,1.25 -45.753157,1.25 l -45.27638,0 z M 57,60.545313 c 0,-0.870765 1.404925,-1.718252 3.5,-2.111291 C 63.450296,57.880543 64,57.362807 64,55.137561 64,51.375166 55.398181,40 52.553085,40 49.627593,40 47,45.611698 47,51.859613 c 0,6.045325 2.742995,9.017957 9.25,10.024386 0.4125,0.0638 0.75,-0.538608 0.75,-1.338686 z M 1,32.817847 1,1 83.5,1 166,1 l 0,4 c 0,3.9956923 -0.004,4 -3.97432,4 -3.36553,0 -4.20192,-0.4401246 -5.46012,-2.8732158 -0.81719,-1.5802687 -1.20374,-3.1552687 -0.85901,-3.5 C 156.05128,2.2820529 151.07208,2 144.64167,2 L 132.95,2 132.36772,4.9114243 c -0.36796,1.8397657 -1.371,3.1230454 -2.725,3.4863453 -3.1898,0.8558673 -7.95141,0.6926903 -9.56365,-0.3277392 -1.20963,-0.7656111 -1.16903,-1.2837863 0.27305,-3.4846873 L 122.04611,2 113.6455,2 c -8.68469,0 -11.31094,1.1023059 -10.1062,4.2418303 1.04082,2.7123097 -8.347646,3.8989517 -10.483768,1.3250821 -0.945449,-1.1391968 -0.765484,-1.8569602 0.877556,-3.5 L 96,2 87.608408,2 C 79.460148,2 79.198364,2.0735185 78.580479,4.5353695 77.568985,8.5654834 67.686299,10.952041 66.35674,7.4872651 65.343955,4.847992 68.05245,2.7468267 71.703612,3.3393287 73.516625,3.6335403 75,3.4525506 75,2.9371294 75,2.4217082 70.939626,2 65.976947,2 l -9.023053,0 1.609249,2.4560239 C 60.379314,7.2278523 59.77857,9 57.02277,9 52.142012,9 50.816715,6.9649961 53.654988,3.8287407 55.245428,2.0713239 54.99266,2 47.17404,2 c -7.866995,0 -8.156896,0.083512 -8.770016,2.5263776 -0.348745,1.3895076 -1.452734,2.9645076 -2.453311,3.5 C 33.634062,9.2662116 27.9538,9.258663 26,8.0131538 23.845881,6.6399454 25.926739,3.6718687 29.606941,2.8683148 31.198123,2.5208879 25.6375,2.1833879 17.25,2.1183148 L 2,2 2.0332693,15.75 2.0665386,29.5 4.0897062,27.069519 c 1.9117782,-2.296665 2.2265239,-2.356758 5.7167307,-1.091467 6.9417851,2.516578 10.0244491,2.905035 10.6254141,1.338946 0.364843,-0.950765 1.667966,-1.337424 3.811274,-1.130869 2.717129,0.261855 3.256875,0.725372 3.256875,2.796908 0,2.111987 -0.597735,2.589035 -4,3.19237 -2.2,0.390133 -5.6324,0.735267 -7.627555,0.766963 -1.995156,0.0317 -4.137271,0.6718 -4.760258,1.422452 C 10.403684,35.218517 9.9383986,40.841703 9.8697748,49.37995 9.809434,56.887617 9.3780749,63.266337 8.9111992,63.554882 8.4443235,63.843427 6.473309,64.204651 4.5311671,64.357602 L 1,64.635695 z M 101.5,3 C 101.84463,2.442374 101.09659,2.006774 99.809017,2.0153128 97.951379,2.0276321 97.793228,2.2201242 99,3 c 1.86074,1.2024997 1.75681,1.2024997 2.5,0 z M 87.762571,52.434612 c -2.995618,-1.625405 -6.193612,-6.868953 -5.419558,-8.886106 0.268246,-0.699038 1.487273,-1.532368 2.708948,-1.851843 1.683059,-0.44013 2.959567,0.253103 5.268632,2.861236 C 92.567848,47.096215 94.188488,48 96.492869,48 100.73233,48 103.27317,45.977594 102.84497,42.943972 102.57187,41.009179 101.56247,40.231992 98,39.21361 92.168454,37.546578 86.676425,34.769147 86.702041,33.5 c 0.0111,-0.55 1.21866,-1.592316 2.683464,-2.316257 3.814254,-1.885096 12.928715,0.275235 17.280045,4.095759 5.61099,4.926507 5.20105,12.898816 -0.88234,17.159794 -2.91086,2.038844 -14.259858,2.035894 -18.020639,-0.0047 z M 101.90857,25.829165 c -0.96276,-1.798941 -0.85039,-2.398539 0.65595,-3.5 C 103.56428,21.598124 104.95542,21 105.65595,21 c 1.66345,0 3.65157,3.756228 2.95244,5.578141 -0.85778,2.235342 -5.37278,1.730608 -6.69982,-0.748976 z M 112,6.440983 c 0,-0.8574593 0.45734,-1.2763651 1.01631,-0.9309017 0.55897,0.3454634 0.75742,1.0470211 0.44098,1.559017 C 112.60006,8.4561416 112,8.1975091 112,6.440983 z"
         style="fill:#db9d62;stroke:#000000;stroke-width:0.40000001;stroke-miterlimit:4;stroke-opacity:0.39215686;stroke-dasharray:none" />
      <path
         sodipodi:nodetypes="cccccccccsssssssssssssssssssssscsssssssssscssscccsssssscccssssssssssssscssssssssssssssssssssssssssssssscsssssssssssssssssssssssscssccssssssssssssssssssssss"
         inkscape:connector-curvature="0"
         id="path3024"
         d="M 83.236705,67.25008 166.97341,66.988582 132.67461,33.244291 167.52751,-0.5 140.00569,33.023791 168,68 83.75,67.755789 -0.5,67.511579 z M 49,64.5 c 0,-1.900653 2.908671,-1.883652 5.44113,0.0318 C 56.260823,65.90815 56.151344,66 52.69113,66 50.076792,66 49,65.562414 49,64.5 z M 62.240547,64.013569 C 60.746507,61.621231 60.620743,59 62,59 c 0.55,0 1,0.45 1,1 0,0.55 0.705324,1 1.567388,1 1.130386,0 1.384065,-0.577598 0.909867,-2.071664 -0.415839,-1.310192 -0.03644,-2.757951 1.032199,-3.938783 1.611804,-1.781023 1.350819,-2.208675 -5.659867,-9.274266 C 56.807314,41.641356 52.7125,38.027931 51.75,37.685454 49.308985,36.816893 49.563853,35.488233 52.634859,33.07258 57.327152,29.381622 58.974909,30.298832 65.25,40.094693 68.4125,45.03158 71,49.759299 71,50.600737 71,52.674951 81.282867,63 83.348607,63 84.256873,63 85,63.45 85,64 c 0,0.55 0.9,1 2,1 1.111111,0 2,-0.666667 2,-1.5 0,-1.711961 3.54372,-2.047294 4.54331,-0.429922 0.36374,0.588542 1.627797,1.460018 2.809017,1.936613 1.434158,0.57865 -1.186024,0.887595 -7.886719,0.929923 L 78.431215,66 76.659071,63 c -1.92223,-3.254077 -2.771302,-3.545487 -5.724812,-1.964816 -2.18705,1.170473 -2.564502,3.543841 -0.684259,4.302535 0.6875,0.277413 -0.554254,0.539913 -2.759453,0.583334 -2.972993,0.05854 -4.33014,-0.434554 -5.25,-1.907484 z M 103.65629,63.79367 c -0.31733,-1.213481 -0.47855,-2.304748 -0.35826,-2.425037 0.12029,-0.120289 2.36169,0.708932 4.9809,1.842714 4.5518,1.970354 4.848,1.98376 6.70471,0.303461 1.85815,-1.681606 2.08529,-1.666545 5.22944,0.346769 l 3.28692,2.104729 -9.63337,0.01685 c -9.09946,0.01591 -9.66534,-0.105433 -10.21034,-2.189486 z M 1.2227069,33.25 1,1 83.5,1 166,1 l 1.30032,3.6829087 c 1.08827,3.0823012 -3.38744,9.1042463 -4.32077,8.1709133 -0.66,-0.66 -2.27007,-4.8196394 -3.26007,-4.8196394 -1.94402,0 -0.34251,-2.5310952 1.28052,-3.5341826 0.55,-0.3399187 1,-1.0414763 1,-1.559017 C 162,2.3608472 131.32168,2 82,2 L 2,2 2,17.056704 2,32.113408 4.2225062,30.556704 C 6.7463521,28.788934 11.646312,28.53483 15.4349,29.975249 19.248629,31.425226 18.53971,33 14.073242,33 10.747747,33 9.9269668,33.440032 8.7128534,35.87378 7.9243568,37.454359 7.5968241,39.366859 7.985003,40.12378 8.3731818,40.880701 8.6064573,43.525 8.5033928,46 8.4003283,48.475 8.2449022,53.343798 8.1580014,56.819551 8.009399,62.763174 7.8661554,63.120093 5.75,62.819551 3.6378501,62.519578 3.497385,62.016126 3.4573185,54.602165 c -0.036606,-6.773558 0.2125111,-7.964569 1.75,-8.366631 C 7.5244958,45.629579 7.4678314,45.217644 4.75,42.910959 2.5382388,41.033787 2.5329651,40.975847 4.4396908,39.501718 6.3500737,38.024763 6.3466811,37.971639 4.215161,35.985826 L 2.0509405,33.969548 1.7481772,49.734774 C 1.5816573,58.405648 1.3451957,50.9875 1.2227069,33.25 z M 153.7366,59.75 c -4.05916,-5.07799 -7.00503,-9.746723 -9.78017,-15.5 C 142.82892,41.9125 141.47747,40 140.95321,40 140.42894,40 140,39.274919 140,38.388709 c 0,-1.292043 -0.6762,-1.484434 -3.4129,-0.971027 -2.66998,0.500891 -4.24816,0.09282 -7.25,-1.874625 -6.32508,-4.145539 -6.59958,-4.518788 -5.82809,-7.924663 0.3885,-1.715117 0.64732,-4.528689 0.57516,-6.252383 -0.14794,-3.53401 2.06895,-5.09137 3.9762,-2.793271 0.66363,0.799622 1.48403,4.029936 1.82311,7.178476 0.72645,6.74535 2.80994,7.950653 6.62594,3.833118 C 140.28331,25.512245 144,26.749337 144,32.077555 c 0,1.472656 0.675,3.237756 1.5,3.922445 0.825,0.684689 1.5,1.802912 1.5,2.48494 0,0.682028 1.39475,2.989428 3.09945,5.127555 1.7047,2.138128 3.97211,5.462505 5.03869,7.387505 1.06658,1.925 2.8689,4.972173 4.00515,6.771495 1.66562,2.637603 1.82816,3.557974 0.83887,4.75 -1.82301,2.196591 -2.5223,1.886274 -6.24556,-2.771495 z M 38.890933,60.785184 c -0.367371,-4.328875 0.390088,-24.402418 0.942012,-24.964421 0.36688,-0.373581 1.848389,-0.970768 3.292242,-1.327082 2.36147,-0.582765 2.690971,-0.313617 3.28003,2.679237 C 46.76538,39.002813 46.973531,41.4 46.867774,42.5 c -0.514446,5.350899 -0.281964,13.236206 0.449614,15.25 0.715893,1.970619 0.490433,2.25 -1.815742,2.25 -1.448221,0 -3.503545,0.465833 -4.567387,1.035184 -1.441072,0.771238 -1.962068,0.707494 -2.043326,-0.25 z m 83.636057,-1.700142 c -0.33428,-1.053226 -0.3133,-3.088264 0.0466,-4.522305 0.35992,-1.434041 0.7156,-6.271184 0.7904,-10.749207 0.14297,-8.559475 1.71911,-11.355294 3.60509,-6.394812 0.6091,1.601998 1.74957,2.581282 3.00617,2.581282 2.12957,0 2.72388,1.449881 1.02475,2.5 -0.55,0.339919 -1,3.914722 -1,7.944007 0,6.683002 -0.21633,7.467716 -2.46482,8.940983 -3.20575,2.100489 -4.26648,2.03696 -5.00819,-0.299948 z M 87.660808,51.296607 C 84.927742,49.861112 81.679077,44.328281 82.648386,42.759906 83.335965,41.64738 89,41.830453 89,42.965204 c 0,0.530862 1.332745,2.483117 2.961656,4.338344 2.249201,2.561697 2.682208,3.652588 1.8,4.534796 -1.44237,1.44237 -2.502496,1.348234 -6.100848,-0.541737 z m 9.005859,0.03673 C 95.307062,49.973728 96.072134,49 98.5,49 c 2.95103,0 6.5,-3.213176 6.5,-5.88499 0,-2.478151 -4.62846,-5.484768 -8.903009,-5.783335 -4.042288,-0.282345 -5.602909,-1.57089 -4.712596,-3.89101 0.544814,-1.419762 1.48403,-1.583126 5.805755,-1.009829 6.67384,0.885317 8.65256,2.013567 9.37933,5.348029 0.3262,1.496624 1.05229,3.937369 1.61355,5.423876 0.83759,2.218397 0.63161,3.248827 -1.14938,5.75 C 105.27299,51.425356 104.15377,52 101.09857,52 99.027691,52 97.033333,51.7 96.666667,51.333337 z M 25.194427,28.794427 C 23.584156,27.184156 23.688635,26 25.440983,26 c 1.858757,0 2.62724,1.271578 1.687461,2.792173 -0.573319,0.92765 -1.008114,0.928157 -1.934017,0.0023 z M 27,7 c 0,-1.2701997 3.034506,-1.2701997 5,0 1.138257,0.735598 0.716223,0.9730673 -1.75,0.9846872 C 28.4625,7.9931093 27,7.55 27,7 z m 27,0 c 0,-0.55 0.9,-1 2,-1 1.1,0 2,0.45 2,1 0,0.55 -0.9,1 -2,1 -1.1,0 -2,-0.45 -2,-1 z m 13,0 c 0,-1.2701997 3.034506,-1.2701997 5,0 1.138257,0.735598 0.716223,0.9730673 -1.75,0.9846872 C 68.4625,7.9931093 67,7.55 67,7 z M 94,7.059017 C 94,5.1931359 96.225996,4.7974243 97.810247,6.3816756 99.301346,7.8727748 99.215187,8 96.714286,8 95.221429,8 94,7.5765576 94,7.059017 z M 121,7 c 0,-0.55 1.09844,-1 2.44098,-1 1.34254,0 2.7191,0.45 3.05902,1 0.36058,0.5834229 -0.65628,1 -2.44098,1 C 122.37656,8 121,7.55 121,7 z"
         style="fill:#e59533;stroke:#000000;stroke-width:0.30000001;stroke-miterlimit:4;stroke-opacity:0.39215686;stroke-dasharray:none" />
      <path
         sodipodi:nodetypes="ccccccccccssssssssssssssssssssssssscsssssssccccsssccccccsssssssssssssssssssssssssssssssssssssssscssssssssssssssssssssscssscssccsssssssssssssssssssss"
         inkscape:connector-curvature="0"
         id="path3026"
         d="M 83.236705,67.25008 166.97341,66.988582 141.37403,31.291257 167.52751,-0.5 162.9896,10.581206 140.73616,31.813442 168,68 83.75,67.755789 -0.5,67.511579 z M 49,64.5 c 0,-1.900653 2.908671,-1.883652 5.44113,0.0318 C 56.260823,65.90815 56.151344,66 52.69113,66 50.076792,66 49,65.562414 49,64.5 z M 63,64.059017 C 63,62.991476 62.55,61.839919 62,61.5 61.45,61.160081 61,60.458524 61,59.940983 61,59.423442 61.45,59 62,59 c 0.55,0 1,0.644676 1,1.432612 0,0.787937 1.0125,1.748552 2.25,2.1347 1.2375,0.386148 3.137628,1.316473 4.222506,2.067388 C 71.277858,65.884302 71.087188,66 67.222506,66 63.709463,66 63,65.673877 63,64.059017 z M 77.456797,62.75 c -0.745276,-2.531515 -1.578115,-3.321242 -3.767269,-3.572258 -1.545759,-0.177241 -3.458259,0.215359 -4.25,0.872445 C 68.320688,60.978742 67.665841,60.967562 66.5,60 c -2.249761,-1.867136 -1.812335,-3.930752 1.0651,-5.024751 4.330104,-1.646303 5.808522,-1.081161 9.301693,3.555672 C 78.71853,60.988914 81.054472,63 82.057776,63 c 1.003305,0 2.102305,0.45 2.442224,1 0.339919,0.55 1.491476,1 2.559017,1 C 88.126558,65 89,64.55 89,64 c 0,-1.468067 3.352266,-1.218586 6.635693,0.493839 2.715744,1.416359 2.343397,1.494159 -7.178896,1.5 L 78.413593,66 z M 104,64.968615 c 0,-1.758389 2.90087,-2.252318 5.90932,-1.006175 2.26282,0.937292 3.31003,0.917521 4.9282,-0.09304 1.71114,-1.068622 2.60737,-1.008458 5.35864,0.359726 3.29869,1.640407 3.28864,1.643069 -6.44616,1.706924 C 107.67753,65.97588 104,65.610983 104,64.968615 z M 1.2354434,33.25 1,1 83.5,1 166,1 l 0,4.1224447 c 0,3.4227837 -0.23793,3.9249819 -1.40189,2.958982 C 163.82708,7.4415222 162.9185,5.8114221 162.57906,4.458982 L 161.9619,2 81.994995,2 2.0280942,2 1.7494905,33.75 1.4708868,65.5 z M 38.890933,60.904988 c -0.252586,-3.253767 0.329464,-24.438163 0.681387,-24.799914 0.211309,-0.217209 1.856481,0.740469 3.655939,2.128173 3.198313,2.466473 3.272484,2.699766 3.304829,10.394926 0.0182,4.329505 0.412615,8.682186 0.876481,9.672624 0.732482,1.563981 0.492696,1.712777 -1.823382,1.131478 -1.86924,-0.469149 -3.252853,-0.138926 -4.626482,1.104191 -1.532358,1.386765 -1.983489,1.467128 -2.068772,0.368522 z m 83.573937,-1.961823 c -0.35923,-0.58126 -0.37035,-2.18362 -0.0247,-3.5608 0.53089,-2.115241 1.1264,-2.455714 3.83595,-2.193164 4.42733,0.428998 4.75341,3.150717 0.62427,5.210604 -3.80406,1.897718 -3.61295,1.874305 -4.43552,0.54336 z M 87.660808,51.296607 C 84.927742,49.861112 81.679077,44.328281 82.648386,42.759906 83.320824,41.671879 89,41.817951 89,42.923275 c 0,0.507801 1.170595,2.314447 2.601321,4.014769 2.570992,3.05545 2.664899,6.161583 0.180064,5.955877 -0.704762,-0.05834 -2.559021,-0.777134 -4.120577,-1.597314 z M 7.2014417,49.744753 c -0.9320924,-1.12456 -0.9838691,-1.761186 -0.1834688,-2.255861 1.4804181,-0.914949 2.2371436,-0.04676 1.8204245,2.088564 -0.3048785,1.56224 -0.467022,1.578811 -1.6369557,0.167297 z M 64.469882,48.355069 C 62.253317,46.91778 59.129494,43.999908 57.528054,41.870908 55.926614,39.741909 54.027667,38 53.308173,38 51.28449,38 51.764115,34.196609 53.934259,33.035184 58.05981,30.827256 59.580021,31.820032 65.349893,40.490187 68.457452,45.15979 71,49.43479 71,49.990187 c 0,1.687341 -2.290931,1.1137 -6.530118,-1.635118 z M 96.8125,49.316886 c 0.721875,-0.288871 1.584375,-0.253344 1.916667,0.07895 0.332291,0.332292 -0.258334,0.568641 -1.3125,0.52522 -1.164943,-0.04798 -1.4019,-0.284941 -0.604167,-0.60417 z M 6.9793989,42.987268 C 5.835804,42.280487 5.7804324,41.819568 6.7255767,40.874423 7.670721,39.929279 8.0776122,40.038679 8.590756,41.375911 9.4263084,43.553325 8.8415149,44.138119 6.9793989,42.987268 z M 123,40.2 c 0,-2.31 0.45,-4.2 1,-4.2 1.6261,0 1.5595,5.738347 -0.0865,7.45 C 123.35637,44.029412 123,42.76161 123,40.2 z M 103.17115,39.706219 C 101.32491,37.481642 99.934449,33 101.09049,33 103.54873,33 106,35.234909 106,37.476167 c 0,2.894203 -1.37685,3.979608 -2.82885,2.230052 z M 140,39.06644 c 0,-1.54897 5.86713,-3.101627 6.63822,-1.756715 0.37534,0.654651 0.31419,0.856679 -0.13589,0.448951 -0.45007,-0.407728 -1.30972,-0.365084 -1.91032,0.09476 C 142.75475,39.260129 140,39.987807 140,39.06644 z M 94.190983,37.15032 C 92.921024,36.792644 91.949121,36.05 92.0312,35.5 c 0.662144,-4.436955 5.278732,-4.629631 5.785222,-0.241449 0.330107,2.860006 0.148617,2.954708 -3.625439,1.891769 z M 5.25,35.325576 C 4.0125,34.46234 3,33.192193 3,32.503028 3,30.512355 12.62674,29.152064 16.418213,30.606989 19.355225,31.734026 18.026392,33 13.90638,33 10.653765,33 9.7053119,33.410885 9.289749,35 8.6713577,37.364732 8.2248391,37.400718 5.25,35.325576 z m 126.61078,-0.292307 -2.36078,-1.96673 5.25,-0.03327 c 5.31359,-0.03367 6.22665,0.590081 4.05,2.766731 -1.74891,1.748908 -4.25146,1.472396 -6.93922,-0.766731 z M 25.194427,28.794427 C 23.584156,27.184156 23.688635,26 25.440983,26 c 1.858757,0 2.62724,1.271578 1.687461,2.792173 -0.573319,0.92765 -1.008114,0.928157 -1.934017,0.0023 z M 27,7 c 0,-1.2701997 3.034506,-1.2701997 5,0 1.138257,0.735598 0.716223,0.9730673 -1.75,0.9846872 C 28.4625,7.9931093 27,7.55 27,7 z m 27,0 c 0,-0.55 0.9,-1 2,-1 1.1,0 2,0.45 2,1 0,0.55 -0.9,1 -2,1 -1.1,0 -2,-0.45 -2,-1 z m 13,0 c 0,-1.2701997 3.034506,-1.2701997 5,0 1.138257,0.735598 0.716223,0.9730673 -1.75,0.9846872 C 68.4625,7.9931093 67,7.55 67,7 z m 27,0 c 0,-1.2644093 2.043466,-1.2644093 4,0 1.168875,0.7553848 0.892937,0.9727547 -1.25,0.9846872 C 95.2375,7.9931093 94,7.55 94,7 z m 27,0 c 0,-1.2701997 3.03451,-1.2701997 5,0 1.13826,0.735598 0.71622,0.9730673 -1.75,0.9846872 C 122.4625,7.9931093 121,7.55 121,7 z"
         style="fill:#a17551;stroke:#000000;stroke-width:0.2;stroke-miterlimit:4;stroke-opacity:0.39215686;stroke-dasharray:none" />
      <path
         sodipodi:nodetypes="sssssscsssssssssssssscssssssssscsssssssssssssssssssssssssssssssssssssssssssssssscsssssssssssssssssssssss"
         inkscape:connector-curvature="0"
         id="path3028"
         d="m 41.75,67.250294 c 23.2375,-0.1496 61.2625,-0.1496 84.5,0 23.2375,0.1496 4.225,0.272 -42.25,0.272 -46.475,0 -65.4875,-0.1224 -42.25,-0.272 z m 108.65021,-19.16267 c 8.36623,14.883683 -4.81033,-5.88755 -4.81033,-5.88755 3.48194,7.60398 -7.66858,-8.488299 -8.27795,-9.18357 0,0 -15.13405,-3.772923 0.91368,2.241426 9.21737,3.454476 9.09037,7.342781 12.1746,12.829694 z M 79.399704,64.234687 C 78.794541,63.830609 77.766209,62.4875 77.11452,61.25 75.82469,58.800723 71.262111,58.137889 69.287132,60.112868 67.714568,61.685432 66,60.315412 66,57.486296 c 0,-1.970884 0.656128,-2.51876 3.700373,-3.089864 2.583215,-0.484614 3.825742,-0.318086 4.115635,0.551592 C 74.685142,57.555426 80.289029,63 82.103592,63 83.146616,63 84,63.45 84,64 c 0,1.15905 -2.987668,1.311468 -4.600296,0.234687 z M 62.232073,62 C 61.491703,60.81448 61.393743,60 61.991526,60 62.546187,60 63,60.4125 63,60.916667 c 0,0.504166 1.2375,1.36864 2.75,1.921052 l 2.75,1.004386 -2.509453,0.07895 C 64.501306,63.967904 62.973307,63.186905 62.232073,62 z m 28.036959,1.307009 c 0.972967,-0.253543 2.322967,-0.236869 3,0.03705 C 93.946064,63.617986 93.15,63.825431 91.5,63.805051 89.85,63.784672 89.296064,63.560553 90.269032,63.307009 z M 39.632783,59.48543 c -0.942748,-2.456761 -0.76543,-22.285415 0.204649,-22.884957 0.460587,-0.284659 2.218373,0.701284 3.906191,2.190983 L 46.812383,41.5 46.28079,50.25 C 45.836989,57.554948 45.472639,59 44.074598,59 c -0.921029,0 -2.154846,0.480248 -2.741815,1.067217 -0.75629,0.75629 -1.251575,0.58679 -1.7,-0.581787 z M 123,56.436642 c 0,-3.416128 0.13395,-3.550412 3.24181,-3.25 4.46059,0.431168 4.80349,3.145412 0.65858,5.213163 C 125.13617,59.279912 123.53686,60 123.34636,60 123.15586,60 123,58.396489 123,56.436642 z M 86.634859,49.92742 C 83.72131,47.635622 83.156006,44.261101 85.532837,43.349026 87.110396,42.74366 94,48.928812 94,50.950434 94,52.742808 89.402145,52.104168 86.634859,49.92742 z M 64.469882,48.355069 C 62.253317,46.91778 59.129494,43.999908 57.528054,41.870908 55.926614,39.741909 54.027667,38 53.308173,38 c -2.023683,0 -1.544058,-3.803391 0.626086,-4.964816 3.859942,-2.065779 5.566122,-1.1507 9.723106,5.214816 8.541849,13.079983 8.714649,15.229053 0.812517,10.105069 z M 6.5427051,49.069098 C 6.2262742,48.557102 6.4247166,47.855545 6.9836881,47.510081 7.5426596,47.164618 8,47.583524 8,48.440983 8,50.197509 7.399945,50.456142 6.5427051,49.069098 z M 6,42.059017 C 6,41.541476 6.45,40.839919 7,40.5 7.55,40.160081 8,40.583524 8,41.440983 8,42.298442 7.55,43 7,43 6.45,43 6,42.576558 6,42.059017 z m 117.84383,-1.853045 c -0.2807,-1.811716 -0.18255,-3.496631 0.21812,-3.744257 1.14532,-0.707847 1.66717,1.791875 0.94742,4.538285 -0.62432,2.382291 -0.67919,2.344906 -1.16554,-0.794028 z m -21.2281,-1.344208 c -2.29479,-3.276273 -2.05272,-5.062928 0.63427,-4.681315 1.48433,0.210808 2.36389,1.124472 2.58466,2.684886 0.50703,3.58355 -1.31552,4.713924 -3.21893,1.996429 z M 141.5,38 c 0.33992,-0.55 1.29303,-1 2.11803,-1 0.825,0 1.22189,0.45 0.88197,1 -0.33992,0.55 -1.29303,1 -2.11803,1 -0.825,0 -1.22189,-0.45 -0.88197,-1 z M 5.25,35.325576 C 0.76349917,32.195952 3.8045126,30 12.625,30 c 4.040258,0 4.536439,1.733517 0.625,2.183578 C 11.550348,32.379144 10.122971,33.359376 9.5128715,34.75 8.3612367,37.374966 8.216028,37.394572 5.25,35.325576 z m 87.96613,0.829162 c -1.979924,-1.256295 -0.312104,-4.310496 2.161148,-3.95761 2.766316,0.394701 3.635366,4.810223 0.942273,4.787559 -1.000753,-0.0084 -2.397292,-0.381899 -3.103421,-0.829949 z m 38.64465,-1.121469 -2.36078,-1.96673 5.25,-0.03327 c 5.31359,-0.03367 6.22665,0.590081 4.05,2.766731 -1.74891,1.748908 -4.25146,1.472396 -6.93922,-0.766731 z M 167.15789,2 c 0,-1.375 0.22698,-1.9375 0.50439,-1.25 0.27741,0.6875 0.27741,1.8125 0,2.5 -0.27741,0.6875 -0.50439,0.125 -0.50439,-1.25 z M 36.8125,1.316886 c 0.721875,-0.2888706 1.584375,-0.2533443 1.916667,0.078947 0.332291,0.3322917 -0.258334,0.5686404 -1.3125,0.5252193 -1.164943,-0.047984 -1.4019,-0.28494 -0.604167,-0.6041663 z m 40,0 c 0.721875,-0.2888706 1.584375,-0.2533443 1.916667,0.078947 0.332291,0.3322917 -0.258334,0.5686404 -1.3125,0.5252193 -1.164943,-0.047984 -1.4019,-0.28494 -0.604167,-0.6041663 z m 82.94916,-0.024147 c 1.24391,-0.2391932 3.04391,-0.2301119 4,0.020181 0.95609,0.2502924 -0.0617,0.445996 -2.26166,0.4348966 -2.2,-0.011099 -2.98225,-0.2158842 -1.73834,-0.4550776 z"
         style="fill:#d85f27" />
      <path
         sodipodi:nodetypes="ssssssscsssssssssssssssss"
         inkscape:connector-curvature="0"
         id="path3030"
         d="m 41.75,67.250294 c 23.2375,-0.1496 61.2625,-0.1496 84.5,0 23.2375,0.1496 4.225,0.272 -42.25,0.272 -46.475,0 -65.4875,-0.1224 -42.25,-0.272 z m 85.76197,-40.464803 c 3.36344,-16.7189 -1.40142,0.164191 -1.40142,0.164191 0.75739,2.732966 3.73546,9.804552 1.70521,4.372335 l -0.79078,-2.115829 z M 167.15789,2 c 0,-1.375 0.22698,-1.9375 0.50439,-1.25 0.27741,0.6875 0.27741,1.8125 0,2.5 -0.27741,0.6875 -0.50439,0.125 -0.50439,-1.25 z M 36.8125,1.316886 c 0.721875,-0.2888706 1.584375,-0.2533443 1.916667,0.078947 0.332291,0.3322917 -0.258334,0.5686404 -1.3125,0.5252193 -1.164943,-0.047984 -1.4019,-0.28494 -0.604167,-0.6041663 z m 40,0 c 0.721875,-0.2888706 1.584375,-0.2533443 1.916667,0.078947 0.332291,0.3322917 -0.258334,0.5686404 -1.3125,0.5252193 -1.164943,-0.047984 -1.4019,-0.28494 -0.604167,-0.6041663 z m 82.94916,-0.024147 c 1.24391,-0.2391932 3.04391,-0.2301119 4,0.020181 0.95609,0.2502924 -0.0617,0.445996 -2.26166,0.4348966 -2.2,-0.011099 -2.98225,-0.2158842 -1.73834,-0.4550776 z"
         style="fill:#5d4b3a" />
    </g>
  </g>
  <g
     inkscape:groupmode="layer"
     id="layer4"
     inkscape:label="Logo"
     style="display:inline"
     sodipodi:insensitive="true">
    <g
       id="g2987"
       transform="matrix(0.95701654,0,0,0.79187095,2.6378402,2.9452817)"
       inkscape:export-filename="/home/kent/g2987.png"
       inkscape:export-xdpi="90"
       inkscape:export-ydpi="90">
      <path
         style="fill:#e6cba2;fill-opacity:1;stroke:#000000;stroke-width:0.60000002;stroke-miterlimit:6.4000001;stroke-opacity:0.39215686;stroke-dasharray:none;marker-start:none;marker-mid:none;marker-end:none"
         d="m 19,67 c 10.725,-0.311006 19.034631,-0.663236 18.465847,-0.782733 -1.585204,-0.333038 -0.799003,-51.386797 0.807042,-52.407083 1.471975,-0.935115 5.947051,-1.046752 8.145324,-0.203195 1.202318,0.461373 1.585461,2.08069 1.5971,6.75 0.02377,9.536473 0.751146,9.693825 8.218608,1.777922 3.608323,-3.825012 7.477239,-7.445145 8.597591,-8.044739 C 68.427233,12.165801 76,12.948109 76,15.243938 76,15.810416 73.075,19.542072 69.5,23.536506 65.925,27.530939 63,31.31844 63,31.953174 63,33.021864 75.544915,52.933791 77.99248,55.75 79.240742,57.186272 91,57.500718 91,56.097825 91,55.601629 89.659672,54.728409 88.021493,54.157337 82.69114,52.299166 78.609336,42.131361 82.581787,40.606989 c 3.385305,-1.299063 5.905924,-0.465367 9.084336,3.00465 2.790916,3.04697 3.738533,3.503615 6.060988,2.920716 5.951619,-1.49376 4.771539,-4.665759 -2.408408,-6.473689 -6.702026,-1.68759 -10.08165,-3.699576 -11.801776,-7.025933 -3.386399,-6.548573 -0.424064,-14.081451 6.333814,-16.10616 10.185939,-3.051782 21.663419,2.045852 20.963559,9.310804 -0.29326,3.044166 -0.58896,3.282728 -4.41635,3.562892 -3.46809,0.253862 -4.36031,-0.09387 -5.77306,-2.25 -1.679761,-2.563646 -6.83993,-3.629378 -8.054863,-1.663576 -0.905846,1.465691 1.761282,2.991011 7.311231,4.181261 10.510102,2.254014 15.212862,11.047991 10.638572,19.893704 -0.74206,1.434986 -2.51259,3.231694 -3.93452,3.992684 C 105.16339,54.715331 104,55.711919 104,56.16898 c 0,1.409056 15.72086,1.003898 16.25716,-0.41898 0.25913,-0.6875 0.55679,-10.220133 0.66146,-21.183628 0.10468,-10.963496 0.41737,-20.300996 0.69487,-20.75 0.69247,-1.120442 7.54304,-1.002627 9.38651,0.161427 0.9926,0.626773 1.66913,3.213482 2,7.646897 l 0.5,6.699725 8.25,-8.247688 c 4.5375,-4.536228 8.25,-8.662303 8.25,-9.169056 0,-0.555426 -27.50415,-0.819356 -69.25,-0.664522 l -62.488225,0.558492 c 0,0 -4.247313,-0.03932 -5.605804,1.316713 C 11.472465,13.29972 11.5,17 11.5,17 l 0,6.5 8.290161,0.291091 c 7.629849,0.267906 8.376722,0.48107 9.376916,2.676258 0.597715,1.311842 0.811111,3.483423 0.474212,4.825735 -0.672767,2.680516 -4.113965,3.675358 -12.7843,3.69591 -3.304064,0.0078 -4.818054,0.46716 -5.25,1.592793 C 11.273145,37.451771 11,44.426771 11,52.081787 L 11,66 6.019052,66 C 1.683004,66 0.96700301,65.708685 0.48894818,63.75 0.18691245,62.5125 0.06583904,47.810276 0.21989615,31.07839 L 0.5,0.65678069 84.25,0.54529619 168,0.4338117 139.02447,29.859652 168,68 83.75,67.782733 C 37.4125,67.663236 8.275,67.311006 19,67 z m 134.5,-1 c -1.1,-0.472686 -1.64879,-0.891058 -1.21953,-0.929715 0.42926,-0.03866 -1.39686,-3.332785 -4.05805,-7.320285 -2.66119,-3.9875 -6.09966,-9.440023 -7.64103,-12.116718 l -2.8025,-4.866717 -2.29929,2.366717 C 133.45059,45.221795 133.14033,46.67549 132.84016,55.5 132.65307,61 132.05,65.830609 131.5,66.234687 c -0.55,0.404078 4.625,0.70995 11.5,0.679715 C 150.90212,66.87965 154.76434,66.543305 153.5,66 z m 13.22917,0.395833 c -0.3323,-0.332291 -1.1948,-0.367818 -1.91667,-0.07895 -0.79773,0.319226 -0.56078,0.556183 0.60417,0.604167 1.05416,0.04342 1.64479,-0.192928 1.3125,-0.525217 z M 138.44116,29.987909 c -0.0386,-15.2625 28.09483,-19.667109 27.69951,-18.663909 -0.39532,1.003199 -1.05201,1.778092 -1.45932,1.721984 -0.98981,-0.136349 -15.9432,15.632454 -17.05982,17.990096 -0.68894,1.45464 1.0247,4.725241 7.94281,15.159366 4.85171,7.317505 9.18452,13.454554 9.62847,13.637887 0.44396,0.183334 0.80719,1.420834 0.80719,2.75 C 166,63.9125 166.225,65 166.5,65 166.775,65 138.47982,45.250409 138.44116,29.987909 z M 62,55.494569 C 62,53.550011 54.79467,42 53.581582,42 50.889969,42 49,45.501555 49,50.488321 c 0,2.84809 0.3,5.478346 0.666667,5.845012 C 50.033333,56.7 52.958333,57 56.166667,57 60.694539,57 62,56.663094 62,55.494569 z"
         id="path3001"
         inkscape:connector-curvature="0"
         sodipodi:nodetypes="sssssssssssssssssssssssssssssssscssscsccsssssscssscccccsssssscssssssssssssssssssssssss" />
      <path
         style="fill:#d6b494;fill-opacity:0.81568627;stroke:#000000;stroke-width:0.25;stroke-miterlimit:6.4000001;stroke-opacity:0.39215686;stroke-dasharray:none"
         d="m 64.5,67 65,-0.521906 L 83.25,66.239047 37,66 37,54.158112 C 37,34.152756 38.189258,15 39.431457,15 c 0.706231,0 0.979389,1.489067 0.737825,4.022107 -0.572273,6.000848 0.58104,11.010934 2.376127,10.322094 1.471757,-0.564766 1.809887,-1.553168 2.945001,-8.608659 0.524051,-3.257322 0.308119,-3.874519 -1.602853,-4.581434 C 41.92643,15.42864 41.875155,15.261885 43.429773,14.665322 46.397182,13.526621 47,14.849474 47,22.5 c 0,4.262497 0.461996,7.667495 1.093276,8.057648 0.601302,0.371625 3.101789,-1.289318 5.556638,-3.690983 2.822179,-2.761037 4.201606,-3.631263 3.751489,-2.366665 -0.39153,1.1 -1.128558,2.540138 -1.637841,3.200307 -0.699439,0.906664 0.0113,1.053038 2.905235,0.598327 2.107162,-0.33109 4.191064,-1.208728 4.630893,-1.950307 C 63.73952,25.606747 64.605461,25 65.224004,25 c 0.618543,0 0.146183,1.041503 -1.04969,2.314451 C 62.978441,28.587399 62,30.342928 62,31.215625 c 0,1.786214 14.471346,24.836529 16.312666,25.983215 2.102253,1.309182 41.750734,0.826677 42.174394,-0.513244 0.20617,-0.652078 0.63913,-10.129343 0.96213,-21.060589 0.323,-10.931246 0.83063,-20.268746 1.12806,-20.75 0.80248,-1.298447 6.83785,-1.059908 8.22275,0.324993 0.69804,0.698039 1.2,4.044444 1.2,8 0,3.74 0.37156,6.8 0.82569,6.8 0.45412,0 1.91662,-1.169782 3.25,-2.599516 1.33337,-1.429734 4.22431,-3.984806 6.42431,-5.677938 2.2,-1.693131 3.4375,-2.458349 2.75,-1.700483 -1.70455,1.879005 -1.57802,5.914834 0.20691,6.599775 1.01082,0.387888 1.28176,1.434815 0.88488,3.41921 -0.47961,2.398053 0.94051,5.170375 8.78995,17.159547 5.14909,7.864673 9.70089,14.449405 10.11512,14.632738 0.41423,0.183334 0.75314,1.195834 0.75314,2.25 0,1.66805 -0.74585,1.91512 -5.75,1.904738 l -5.75,-0.01193 -8,-12.948956 c -4.4,-7.121926 -8.52984,-12.966558 -9.17742,-12.988071 -0.64758,-0.02151 -2.11008,1.146571 -3.25,2.595744 C 132.28103,44.91244 132,46.663893 132,55.551525 c 0,7.289774 -0.36375,10.428586 -1.25,10.786194 -0.6875,0.277413 7.18151,0.539913 17.4867,0.583334 L 166.9734,67 140.95332,28.892745 167.52751,-0.5 134.16188,32.297582 168,68 83.75,67.760953 -0.5,67.521906 z m -3.081787,-9.606989 c 2.338039,-0.89719 1.970312,-2.59745 -2.005108,-9.271012 C 54.306192,39.548994 53.325262,38.920542 50.385463,42.338262 48.466772,44.568873 48,46.242044 48,50.889097 c 0,3.177663 0.3,6.07757 0.666667,6.444236 0.833497,0.833498 10.615699,0.879279 12.751546,0.05968 z M 1,33.5 1,1 83.5,1 166,1 l 0,5.0453131 0,5.0453129 -3.75,-0.677973 c -2.0625,-0.372885 -3.91955,-0.8253287 -4.12678,-1.0054304 -0.20724,-0.1801017 -1.62586,0.3184636 -3.15251,1.1079224 -2.33347,1.206685 -2.85946,1.217155 -3.30131,0.06571 C 151.23114,9.4387772 139.54194,9.2188927 81.321905,9.2575574 31.778243,9.29046 11.286626,9.6228277 10.765313,10.401964 c -1.2740504,1.904148 -0.8632989,12.271825 0.532071,13.42988 0.713561,0.592203 4.876061,1.209803 9.25,1.372444 7.892249,0.293467 7.955062,0.317046 8.274874,3.106184 0.493114,4.300545 -1.001274,5.218629 -9.010767,5.535802 -4.02132,0.159243 -7.68427,0.654255 -8.139888,1.100026 -0.455618,0.445772 -0.995036,7.170838 -1.198705,14.944592 C 10.269228,57.664647 9.8279486,64.469368 9.4922774,65.012496 9.1566061,65.555623 7.1085237,66 4.940983,66 L 1,66 z M 6.9292288,18.6129 C 6.5819578,12.340377 7.9121159,8.0515843 10.377594,7.4944285 11.544917,7.2306335 15.2,6.898971 18.5,6.7574007 23.747533,6.5322809 24.5,6.2491777 24.5,4.5 24.5,2.6777807 23.772733,2.4838395 16.318373,2.3181976 7.6781707,2.1262052 2.3649504,3.0650854 2.7035499,4.7240244 2.8155024,5.2725257 3.2147143,9.7962028 3.5906876,14.77664 4.1415174,22.073365 4.5541926,23.724567 5.715605,23.278891 6.7041679,22.899544 7.0854051,21.43381 6.9292288,18.6129 z M 51.654923,5.4568719 c 0.872344,-2.2732921 0.03614,-2.6542053 -5.728644,-2.6095512 -5.344005,0.041395 -7.669305,1.1414216 -6.48013,3.065547 C 40.538874,7.680933 50.950698,7.292053 51.654923,5.4568719 z M 64.8,5.8 C 66.736486,3.8635137 66.199571,3 63.059017,3 59.500319,3 58.302224,4.49534 60.728968,5.9081309 63.023527,7.2439674 63.365105,7.2348947 64.8,5.8 z M 91.677102,5.3990752 C 92.490674,3.278941 90.336463,2.0341075 85.821429,2.0153128 82.124448,1.9999234 78.485595,4.3586588 79.549826,6.0806198 79.86234,6.5862789 82.580599,7 85.590402,7 c 4.095163,0 5.626974,-0.402897 6.0867,-1.6009248 z M 110,6.5817875 c 0,-0.2300169 0.27314,-1.1300169 0.60699,-2 C 111.06261,3.3944564 110.57858,3 108.66601,3 c -2.7278,0 -4.17348,1.3698774 -3.16601,3 0.58874,0.952595 4.5,1.4582671 4.5,0.5817875 z m 8.81955,-2.3420032 c 0.33519,-2.3493984 -1.2212,-2.9046298 -3.71527,-1.3253963 -1.88986,1.1966513 -0.57335,4.3216761 1.6427,3.8993029 0.96416,-0.1837672 1.89682,-1.3420252 2.07257,-2.5739066 z m 27.00275,1.2712475 c 0.23363,-0.2336266 0.15196,-1.1357145 -0.18147,-2.0046398 -0.4936,-1.2862799 -1.58507,-1.4570381 -5.87354,-0.9189006 -5.78381,0.7257791 -7.38246,1.6081261 -6.24581,3.4472675 0.52227,0.8450545 2.42235,1.0121447 6.31163,0.555036 3.06043,-0.3596931 5.75556,-0.8451365 5.98919,-1.0787631 z M 88,53.248446 C 84.185056,51.342668 80.552796,45.32897 81.587709,42.63203 81.993153,41.57546 83.386355,41 85.538895,41 88.091872,41 89.359767,41.696505 91,44 c 1.747839,2.454614 2.844595,3 6.03291,3 7.43616,0 7.22202,-5.922726 -0.272624,-7.540196 -6.47586,-1.3976 -10.842082,-3.717301 -12.298704,-6.534095 C 82.402863,28.944584 82.645853,24.622808 85.083703,21.860784 86.879896,19.825741 87.063922,19.77596 86.417418,21.5 85.211323,24.716305 85.395311,29.273755 86.75,29.738155 87.535874,30.00756 88,29.217009 88,27.609013 88,24.402381 92.240519,22 97.90065,22 c 2.64123,0 4.30677,-0.548218 4.90315,-1.613889 1.97239,-3.524472 7.1962,1.310786 7.1962,6.660942 0,3.128635 -6.45275,2.717786 -8.59196,-0.547053 -1.28572,-1.962263 -2.480452,-2.5 -5.554435,-2.5 -2.633385,0 -4.11339,0.513414 -4.517772,1.567217 -0.87754,2.286833 0.669061,3.364945 7.271965,5.069174 6.616722,1.707797 11.933322,5.997842 12.902702,10.4114 0.86386,3.933132 -1.82832,9.565879 -5.70032,11.926574 C 101.57519,55.556362 92.88756,55.690056 88,53.248446 z M 148.85987,25.305694 C 150.13476,22.874961 152,21.378257 152,22.785995 c 0,0.497217 -0.96548,1.761274 -2.14551,2.809017 -2.13061,1.89176 -2.13752,1.889751 -0.99462,-0.289318 z M 153,21.329302 c 0,-1.277323 3.83833,-4.824304 4.50219,-4.160448 0.26946,0.26946 -0.6333,1.545142 -2.00613,2.83485 C 154.12323,21.293412 153,21.889931 153,21.329302 z M 72.596556,16.156231 c -0.346049,-0.559919 -0.1419,-1.31919 0.453663,-1.687268 1.537485,-0.950218 2.529468,0.35135 1.245982,1.634836 -0.71818,0.71818 -1.277526,0.735435 -1.699645,0.05243 z M 65.8125,15.316886 c 0.721875,-0.288871 1.584375,-0.253344 1.916667,0.07895 0.332291,0.332292 -0.258334,0.568641 -1.3125,0.52522 -1.164943,-0.04798 -1.4019,-0.284941 -0.604167,-0.60417 z"
         id="path2999"
         inkscape:connector-curvature="0"
         sodipodi:nodetypes="ccccssssssssssssssssssssssssssssssssscssssssccccccccssssssccccccscssssssssssssccsssssssssssssssssssssssssssssssscsssssssssssssssssssssssssssssssssssssssss" />
      <path
         style="fill:#db9d62;stroke:#000000;stroke-width:0.40000001;stroke-miterlimit:4;stroke-opacity:0.39215686;stroke-dasharray:none"
         d="M 83.236705,67.25008 166.97341,66.988582 145.33619,28.160827 167.52751,-0.5 137.08378,34.234139 168,68 83.75,67.755789 -0.5,67.511579 z M 38.630286,63.75 c -0.331637,-1.2375 -0.609121,-8.405357 -0.616631,-15.928571 -0.01647,-16.499163 0.431099,-17.371133 8.404983,-16.374861 3.766028,0.470534 5.605383,0.24368 7.084079,-0.873704 2.721244,-2.056322 6.418964,-1.965215 7.18935,0.177136 0.346114,0.9625 4.044491,7.270403 8.218615,14.017562 6.385404,10.321526 8.240852,12.585226 11.696505,14.270072 3.466411,1.690091 4.870532,1.854428 9,1.053349 2.691047,-0.522039 5.680313,-0.962321 6.642813,-0.978405 0.9625,-0.01608 3.6625,-0.08276 6,-0.148167 2.3375,-0.06541 5.4259,0.331285 6.86311,0.881538 3.6271,1.388674 10.74729,0.28342 11.88644,-1.84511 0.50794,-0.949094 0.98896,-10.426153 1.06893,-21.060131 0.08,-10.633977 0.37042,-19.9209 0.64545,-20.637606 0.62764,-1.635611 5.48292,-1.706255 7.08607,-0.103102 0.67696,0.676963 1.2,3.920218 1.2,7.440983 0,3.432541 0.48888,6.543129 1.08641,6.912419 0.59752,0.36929 2.53144,-0.729153 4.2976,-2.440983 C 141.17225,23.47148 145,24.401515 145,30.205859 c 0,1.830784 2.89666,7.234623 8.33538,15.55 C 166.13646,65.32769 166.35811,66 160.00972,66 c -3.60684,0 -4.32361,-0.456451 -7.45898,-4.75 -1.90778,-2.6125 -5.78846,-8.6875 -8.62372,-13.5 -2.83527,-4.8125 -5.75583,-8.75 -6.49014,-8.75 -0.7343,0 -2.46327,1.479114 -3.84215,3.286921 -2.20317,2.8885 -2.52816,4.373373 -2.68111,12.25 -0.0957,4.929693 -0.3886,9.525579 -0.65082,10.213079 -0.37173,0.974574 -10.453,1.25 -45.753157,1.25 l -45.27638,0 z M 57,60.545313 c 0,-0.870765 1.404925,-1.718252 3.5,-2.111291 C 63.450296,57.880543 64,57.362807 64,55.137561 64,51.375166 55.398181,40 52.553085,40 49.627593,40 47,45.611698 47,51.859613 c 0,6.045325 2.742995,9.017957 9.25,10.024386 0.4125,0.0638 0.75,-0.538608 0.75,-1.338686 z M 1,32.817847 1,1 83.5,1 166,1 l 0,4 c 0,3.9956923 -0.004,4 -3.97432,4 -3.36553,0 -4.20192,-0.4401246 -5.46012,-2.8732158 -0.81719,-1.5802687 -1.20374,-3.1552687 -0.85901,-3.5 C 156.05128,2.2820529 151.07208,2 144.64167,2 L 132.95,2 132.36772,4.9114243 c -0.36796,1.8397657 -1.371,3.1230454 -2.725,3.4863453 -3.1898,0.8558673 -7.95141,0.6926903 -9.56365,-0.3277392 -1.20963,-0.7656111 -1.16903,-1.2837863 0.27305,-3.4846873 L 122.04611,2 113.6455,2 c -8.68469,0 -11.31094,1.1023059 -10.1062,4.2418303 1.04082,2.7123097 -8.347646,3.8989517 -10.483768,1.3250821 -0.945449,-1.1391968 -0.765484,-1.8569602 0.877556,-3.5 L 96,2 87.608408,2 C 79.460148,2 79.198364,2.0735185 78.580479,4.5353695 77.568985,8.5654834 67.686299,10.952041 66.35674,7.4872651 65.343955,4.847992 68.05245,2.7468267 71.703612,3.3393287 73.516625,3.6335403 75,3.4525506 75,2.9371294 75,2.4217082 70.939626,2 65.976947,2 l -9.023053,0 1.609249,2.4560239 C 60.379314,7.2278523 59.77857,9 57.02277,9 52.142012,9 50.816715,6.9649961 53.654988,3.8287407 55.245428,2.0713239 54.99266,2 47.17404,2 c -7.866995,0 -8.156896,0.083512 -8.770016,2.5263776 -0.348745,1.3895076 -1.452734,2.9645076 -2.453311,3.5 C 33.634062,9.2662116 27.9538,9.258663 26,8.0131538 23.845881,6.6399454 25.926739,3.6718687 29.606941,2.8683148 31.198123,2.5208879 25.6375,2.1833879 17.25,2.1183148 L 2,2 2.0332693,15.75 2.0665386,29.5 4.0897062,27.069519 c 1.9117782,-2.296665 2.2265239,-2.356758 5.7167307,-1.091467 6.9417851,2.516578 10.0244491,2.905035 10.6254141,1.338946 0.364843,-0.950765 1.667966,-1.337424 3.811274,-1.130869 2.717129,0.261855 3.256875,0.725372 3.256875,2.796908 0,2.111987 -0.597735,2.589035 -4,3.19237 -2.2,0.390133 -5.6324,0.735267 -7.627555,0.766963 -1.995156,0.0317 -4.137271,0.6718 -4.760258,1.422452 C 10.403684,35.218517 9.9383986,40.841703 9.8697748,49.37995 9.809434,56.887617 9.3780749,63.266337 8.9111992,63.554882 8.4443235,63.843427 6.473309,64.204651 4.5311671,64.357602 L 1,64.635695 z M 101.5,3 C 101.84463,2.442374 101.09659,2.006774 99.809017,2.0153128 97.951379,2.0276321 97.793228,2.2201242 99,3 c 1.86074,1.2024997 1.75681,1.2024997 2.5,0 z M 87.762571,52.434612 c -2.995618,-1.625405 -6.193612,-6.868953 -5.419558,-8.886106 0.268246,-0.699038 1.487273,-1.532368 2.708948,-1.851843 1.683059,-0.44013 2.959567,0.253103 5.268632,2.861236 C 92.567848,47.096215 94.188488,48 96.492869,48 100.73233,48 103.27317,45.977594 102.84497,42.943972 102.57187,41.009179 101.56247,40.231992 98,39.21361 92.168454,37.546578 86.676425,34.769147 86.702041,33.5 c 0.0111,-0.55 1.21866,-1.592316 2.683464,-2.316257 3.814254,-1.885096 12.928715,0.275235 17.280045,4.095759 5.61099,4.926507 5.20105,12.898816 -0.88234,17.159794 -2.91086,2.038844 -14.259858,2.035894 -18.020639,-0.0047 z M 101.90857,25.829165 c -0.96276,-1.798941 -0.85039,-2.398539 0.65595,-3.5 C 103.56428,21.598124 104.95542,21 105.65595,21 c 1.66345,0 3.65157,3.756228 2.95244,5.578141 -0.85778,2.235342 -5.37278,1.730608 -6.69982,-0.748976 z M 112,6.440983 c 0,-0.8574593 0.45734,-1.2763651 1.01631,-0.9309017 0.55897,0.3454634 0.75742,1.0470211 0.44098,1.559017 C 112.60006,8.4561416 112,8.1975091 112,6.440983 z"
         id="path2997"
         inkscape:connector-curvature="0"
         sodipodi:nodetypes="cccccccccsssssssssssssssssssssssssscscssssssssccccssssscsssscsssscsssssscssssssssscccsssssssssssccsssscssssssssssccssssssscs" />
      <path
         style="fill:#e59533;stroke:#000000;stroke-width:0.30000001;stroke-miterlimit:4;stroke-opacity:0.39215686;stroke-dasharray:none"
         d="M 83.236705,67.25008 166.97341,66.988582 132.67461,33.244291 167.52751,-0.5 140.00569,33.023791 168,68 83.75,67.755789 -0.5,67.511579 z M 49,64.5 c 0,-1.900653 2.908671,-1.883652 5.44113,0.0318 C 56.260823,65.90815 56.151344,66 52.69113,66 50.076792,66 49,65.562414 49,64.5 z M 62.240547,64.013569 C 60.746507,61.621231 60.620743,59 62,59 c 0.55,0 1,0.45 1,1 0,0.55 0.705324,1 1.567388,1 1.130386,0 1.384065,-0.577598 0.909867,-2.071664 -0.415839,-1.310192 -0.03644,-2.757951 1.032199,-3.938783 1.611804,-1.781023 1.350819,-2.208675 -5.659867,-9.274266 C 56.807314,41.641356 52.7125,38.027931 51.75,37.685454 49.308985,36.816893 49.563853,35.488233 52.634859,33.07258 57.327152,29.381622 58.974909,30.298832 65.25,40.094693 68.4125,45.03158 71,49.759299 71,50.600737 71,52.674951 81.282867,63 83.348607,63 84.256873,63 85,63.45 85,64 c 0,0.55 0.9,1 2,1 1.111111,0 2,-0.666667 2,-1.5 0,-1.711961 3.54372,-2.047294 4.54331,-0.429922 0.36374,0.588542 1.627797,1.460018 2.809017,1.936613 1.434158,0.57865 -1.186024,0.887595 -7.886719,0.929923 L 78.431215,66 76.659071,63 c -1.92223,-3.254077 -2.771302,-3.545487 -5.724812,-1.964816 -2.18705,1.170473 -2.564502,3.543841 -0.684259,4.302535 0.6875,0.277413 -0.554254,0.539913 -2.759453,0.583334 -2.972993,0.05854 -4.33014,-0.434554 -5.25,-1.907484 z M 103.65629,63.79367 c -0.31733,-1.213481 -0.47855,-2.304748 -0.35826,-2.425037 0.12029,-0.120289 2.36169,0.708932 4.9809,1.842714 4.5518,1.970354 4.848,1.98376 6.70471,0.303461 1.85815,-1.681606 2.08529,-1.666545 5.22944,0.346769 l 3.28692,2.104729 -9.63337,0.01685 c -9.09946,0.01591 -9.66534,-0.105433 -10.21034,-2.189486 z M 1.2227069,33.25 1,1 83.5,1 166,1 l 1.30032,3.6829087 c 1.08827,3.0823012 -3.38744,9.1042463 -4.32077,8.1709133 -0.66,-0.66 -2.27007,-4.8196394 -3.26007,-4.8196394 -1.94402,0 -0.34251,-2.5310952 1.28052,-3.5341826 0.55,-0.3399187 1,-1.0414763 1,-1.559017 C 162,2.3608472 131.32168,2 82,2 L 2,2 2,17.056704 2,32.113408 4.2225062,30.556704 C 6.7463521,28.788934 11.646312,28.53483 15.4349,29.975249 19.248629,31.425226 18.53971,33 14.073242,33 10.747747,33 9.9269668,33.440032 8.7128534,35.87378 7.9243568,37.454359 7.5968241,39.366859 7.985003,40.12378 8.3731818,40.880701 8.6064573,43.525 8.5033928,46 8.4003283,48.475 8.2449022,53.343798 8.1580014,56.819551 8.009399,62.763174 7.8661554,63.120093 5.75,62.819551 3.6378501,62.519578 3.497385,62.016126 3.4573185,54.602165 c -0.036606,-6.773558 0.2125111,-7.964569 1.75,-8.366631 C 7.5244958,45.629579 7.4678314,45.217644 4.75,42.910959 2.5382388,41.033787 2.5329651,40.975847 4.4396908,39.501718 6.3500737,38.024763 6.3466811,37.971639 4.215161,35.985826 L 2.0509405,33.969548 1.7481772,49.734774 C 1.5816573,58.405648 1.3451957,50.9875 1.2227069,33.25 z M 153.7366,59.75 c -4.05916,-5.07799 -7.00503,-9.746723 -9.78017,-15.5 C 142.82892,41.9125 141.47747,40 140.95321,40 140.42894,40 140,39.274919 140,38.388709 c 0,-1.292043 -0.6762,-1.484434 -3.4129,-0.971027 -2.66998,0.500891 -4.24816,0.09282 -7.25,-1.874625 -6.32508,-4.145539 -6.59958,-4.518788 -5.82809,-7.924663 0.3885,-1.715117 0.64732,-4.528689 0.57516,-6.252383 -0.14794,-3.53401 2.06895,-5.09137 3.9762,-2.793271 0.66363,0.799622 1.48403,4.029936 1.82311,7.178476 0.72645,6.74535 2.80994,7.950653 6.62594,3.833118 C 140.28331,25.512245 144,26.749337 144,32.077555 c 0,1.472656 0.675,3.237756 1.5,3.922445 0.825,0.684689 1.5,1.802912 1.5,2.48494 0,0.682028 1.39475,2.989428 3.09945,5.127555 1.7047,2.138128 3.97211,5.462505 5.03869,7.387505 1.06658,1.925 2.8689,4.972173 4.00515,6.771495 1.66562,2.637603 1.82816,3.557974 0.83887,4.75 -1.82301,2.196591 -2.5223,1.886274 -6.24556,-2.771495 z M 38.890933,60.785184 c -0.367371,-4.328875 0.390088,-24.402418 0.942012,-24.964421 0.36688,-0.373581 1.848389,-0.970768 3.292242,-1.327082 2.36147,-0.582765 2.690971,-0.313617 3.28003,2.679237 C 46.76538,39.002813 46.973531,41.4 46.867774,42.5 c -0.514446,5.350899 -0.281964,13.236206 0.449614,15.25 0.715893,1.970619 0.490433,2.25 -1.815742,2.25 -1.448221,0 -3.503545,0.465833 -4.567387,1.035184 -1.441072,0.771238 -1.962068,0.707494 -2.043326,-0.25 z m 83.636057,-1.700142 c -0.33428,-1.053226 -0.3133,-3.088264 0.0466,-4.522305 0.35992,-1.434041 0.7156,-6.271184 0.7904,-10.749207 0.14297,-8.559475 1.71911,-11.355294 3.60509,-6.394812 0.6091,1.601998 1.74957,2.581282 3.00617,2.581282 2.12957,0 2.72388,1.449881 1.02475,2.5 -0.55,0.339919 -1,3.914722 -1,7.944007 0,6.683002 -0.21633,7.467716 -2.46482,8.940983 -3.20575,2.100489 -4.26648,2.03696 -5.00819,-0.299948 z M 87.660808,51.296607 C 84.927742,49.861112 81.679077,44.328281 82.648386,42.759906 83.335965,41.64738 89,41.830453 89,42.965204 c 0,0.530862 1.332745,2.483117 2.961656,4.338344 2.249201,2.561697 2.682208,3.652588 1.8,4.534796 -1.44237,1.44237 -2.502496,1.348234 -6.100848,-0.541737 z m 9.005859,0.03673 C 95.307062,49.973728 96.072134,49 98.5,49 c 2.95103,0 6.5,-3.213176 6.5,-5.88499 0,-2.478151 -4.62846,-5.484768 -8.903009,-5.783335 -4.042288,-0.282345 -5.602909,-1.57089 -4.712596,-3.89101 0.544814,-1.419762 1.48403,-1.583126 5.805755,-1.009829 6.67384,0.885317 8.65256,2.013567 9.37933,5.348029 0.3262,1.496624 1.05229,3.937369 1.61355,5.423876 0.83759,2.218397 0.63161,3.248827 -1.14938,5.75 C 105.27299,51.425356 104.15377,52 101.09857,52 99.027691,52 97.033333,51.7 96.666667,51.333337 z M 25.194427,28.794427 C 23.584156,27.184156 23.688635,26 25.440983,26 c 1.858757,0 2.62724,1.271578 1.687461,2.792173 -0.573319,0.92765 -1.008114,0.928157 -1.934017,0.0023 z M 27,7 c 0,-1.2701997 3.034506,-1.2701997 5,0 1.138257,0.735598 0.716223,0.9730673 -1.75,0.9846872 C 28.4625,7.9931093 27,7.55 27,7 z m 27,0 c 0,-0.55 0.9,-1 2,-1 1.1,0 2,0.45 2,1 0,0.55 -0.9,1 -2,1 -1.1,0 -2,-0.45 -2,-1 z m 13,0 c 0,-1.2701997 3.034506,-1.2701997 5,0 1.138257,0.735598 0.716223,0.9730673 -1.75,0.9846872 C 68.4625,7.9931093 67,7.55 67,7 z M 94,7.059017 C 94,5.1931359 96.225996,4.7974243 97.810247,6.3816756 99.301346,7.8727748 99.215187,8 96.714286,8 95.221429,8 94,7.5765576 94,7.059017 z M 121,7 c 0,-0.55 1.09844,-1 2.44098,-1 1.34254,0 2.7191,0.45 3.05902,1 0.36058,0.5834229 -0.65628,1 -2.44098,1 C 122.37656,8 121,7.55 121,7 z"
         id="path2995"
         inkscape:connector-curvature="0"
         sodipodi:nodetypes="cccccccccsssssssssssssssssssssscsssssssssscssscccsssssscccssssssssssssscssssssssssssssssssssssssssssssscsssssssssssssssssssssssscssccssssssssssssssssssssss" />
      <path
         style="fill:#a17551;stroke:#000000;stroke-width:0.2;stroke-miterlimit:4;stroke-opacity:0.39215686;stroke-dasharray:none"
         d="M 83.236705,67.25008 166.97341,66.988582 141.37403,31.291257 167.52751,-0.5 162.9896,10.581206 140.73616,31.813442 168,68 83.75,67.755789 -0.5,67.511579 z M 49,64.5 c 0,-1.900653 2.908671,-1.883652 5.44113,0.0318 C 56.260823,65.90815 56.151344,66 52.69113,66 50.076792,66 49,65.562414 49,64.5 z M 63,64.059017 C 63,62.991476 62.55,61.839919 62,61.5 61.45,61.160081 61,60.458524 61,59.940983 61,59.423442 61.45,59 62,59 c 0.55,0 1,0.644676 1,1.432612 0,0.787937 1.0125,1.748552 2.25,2.1347 1.2375,0.386148 3.137628,1.316473 4.222506,2.067388 C 71.277858,65.884302 71.087188,66 67.222506,66 63.709463,66 63,65.673877 63,64.059017 z M 77.456797,62.75 c -0.745276,-2.531515 -1.578115,-3.321242 -3.767269,-3.572258 -1.545759,-0.177241 -3.458259,0.215359 -4.25,0.872445 C 68.320688,60.978742 67.665841,60.967562 66.5,60 c -2.249761,-1.867136 -1.812335,-3.930752 1.0651,-5.024751 4.330104,-1.646303 5.808522,-1.081161 9.301693,3.555672 C 78.71853,60.988914 81.054472,63 82.057776,63 c 1.003305,0 2.102305,0.45 2.442224,1 0.339919,0.55 1.491476,1 2.559017,1 C 88.126558,65 89,64.55 89,64 c 0,-1.468067 3.352266,-1.218586 6.635693,0.493839 2.715744,1.416359 2.343397,1.494159 -7.178896,1.5 L 78.413593,66 z M 104,64.968615 c 0,-1.758389 2.90087,-2.252318 5.90932,-1.006175 2.26282,0.937292 3.31003,0.917521 4.9282,-0.09304 1.71114,-1.068622 2.60737,-1.008458 5.35864,0.359726 3.29869,1.640407 3.28864,1.643069 -6.44616,1.706924 C 107.67753,65.97588 104,65.610983 104,64.968615 z M 1.2354434,33.25 1,1 83.5,1 166,1 l 0,4.1224447 c 0,3.4227837 -0.23793,3.9249819 -1.40189,2.958982 C 163.82708,7.4415222 162.9185,5.8114221 162.57906,4.458982 L 161.9619,2 81.994995,2 2.0280942,2 1.7494905,33.75 1.4708868,65.5 z M 38.890933,60.904988 c -0.252586,-3.253767 0.329464,-24.438163 0.681387,-24.799914 0.211309,-0.217209 1.856481,0.740469 3.655939,2.128173 3.198313,2.466473 3.272484,2.699766 3.304829,10.394926 0.0182,4.329505 0.412615,8.682186 0.876481,9.672624 0.732482,1.563981 0.492696,1.712777 -1.823382,1.131478 -1.86924,-0.469149 -3.252853,-0.138926 -4.626482,1.104191 -1.532358,1.386765 -1.983489,1.467128 -2.068772,0.368522 z m 83.573937,-1.961823 c -0.35923,-0.58126 -0.37035,-2.18362 -0.0247,-3.5608 0.53089,-2.115241 1.1264,-2.455714 3.83595,-2.193164 4.42733,0.428998 4.75341,3.150717 0.62427,5.210604 -3.80406,1.897718 -3.61295,1.874305 -4.43552,0.54336 z M 87.660808,51.296607 C 84.927742,49.861112 81.679077,44.328281 82.648386,42.759906 83.320824,41.671879 89,41.817951 89,42.923275 c 0,0.507801 1.170595,2.314447 2.601321,4.014769 2.570992,3.05545 2.664899,6.161583 0.180064,5.955877 -0.704762,-0.05834 -2.559021,-0.777134 -4.120577,-1.597314 z M 7.2014417,49.744753 c -0.9320924,-1.12456 -0.9838691,-1.761186 -0.1834688,-2.255861 1.4804181,-0.914949 2.2371436,-0.04676 1.8204245,2.088564 -0.3048785,1.56224 -0.467022,1.578811 -1.6369557,0.167297 z M 64.469882,48.355069 C 62.253317,46.91778 59.129494,43.999908 57.528054,41.870908 55.926614,39.741909 54.027667,38 53.308173,38 51.28449,38 51.764115,34.196609 53.934259,33.035184 58.05981,30.827256 59.580021,31.820032 65.349893,40.490187 68.457452,45.15979 71,49.43479 71,49.990187 c 0,1.687341 -2.290931,1.1137 -6.530118,-1.635118 z M 96.8125,49.316886 c 0.721875,-0.288871 1.584375,-0.253344 1.916667,0.07895 0.332291,0.332292 -0.258334,0.568641 -1.3125,0.52522 -1.164943,-0.04798 -1.4019,-0.284941 -0.604167,-0.60417 z M 6.9793989,42.987268 C 5.835804,42.280487 5.7804324,41.819568 6.7255767,40.874423 7.670721,39.929279 8.0776122,40.038679 8.590756,41.375911 9.4263084,43.553325 8.8415149,44.138119 6.9793989,42.987268 z M 123,40.2 c 0,-2.31 0.45,-4.2 1,-4.2 1.6261,0 1.5595,5.738347 -0.0865,7.45 C 123.35637,44.029412 123,42.76161 123,40.2 z M 103.17115,39.706219 C 101.32491,37.481642 99.934449,33 101.09049,33 103.54873,33 106,35.234909 106,37.476167 c 0,2.894203 -1.37685,3.979608 -2.82885,2.230052 z M 140,39.06644 c 0,-1.54897 5.86713,-3.101627 6.63822,-1.756715 0.37534,0.654651 0.31419,0.856679 -0.13589,0.448951 -0.45007,-0.407728 -1.30972,-0.365084 -1.91032,0.09476 C 142.75475,39.260129 140,39.987807 140,39.06644 z M 94.190983,37.15032 C 92.921024,36.792644 91.949121,36.05 92.0312,35.5 c 0.662144,-4.436955 5.278732,-4.629631 5.785222,-0.241449 0.330107,2.860006 0.148617,2.954708 -3.625439,1.891769 z M 5.25,35.325576 C 4.0125,34.46234 3,33.192193 3,32.503028 3,30.512355 12.62674,29.152064 16.418213,30.606989 19.355225,31.734026 18.026392,33 13.90638,33 10.653765,33 9.7053119,33.410885 9.289749,35 8.6713577,37.364732 8.2248391,37.400718 5.25,35.325576 z m 126.61078,-0.292307 -2.36078,-1.96673 5.25,-0.03327 c 5.31359,-0.03367 6.22665,0.590081 4.05,2.766731 -1.74891,1.748908 -4.25146,1.472396 -6.93922,-0.766731 z M 25.194427,28.794427 C 23.584156,27.184156 23.688635,26 25.440983,26 c 1.858757,0 2.62724,1.271578 1.687461,2.792173 -0.573319,0.92765 -1.008114,0.928157 -1.934017,0.0023 z M 27,7 c 0,-1.2701997 3.034506,-1.2701997 5,0 1.138257,0.735598 0.716223,0.9730673 -1.75,0.9846872 C 28.4625,7.9931093 27,7.55 27,7 z m 27,0 c 0,-0.55 0.9,-1 2,-1 1.1,0 2,0.45 2,1 0,0.55 -0.9,1 -2,1 -1.1,0 -2,-0.45 -2,-1 z m 13,0 c 0,-1.2701997 3.034506,-1.2701997 5,0 1.138257,0.735598 0.716223,0.9730673 -1.75,0.9846872 C 68.4625,7.9931093 67,7.55 67,7 z m 27,0 c 0,-1.2644093 2.043466,-1.2644093 4,0 1.168875,0.7553848 0.892937,0.9727547 -1.25,0.9846872 C 95.2375,7.9931093 94,7.55 94,7 z m 27,0 c 0,-1.2701997 3.03451,-1.2701997 5,0 1.13826,0.735598 0.71622,0.9730673 -1.75,0.9846872 C 122.4625,7.9931093 121,7.55 121,7 z"
         id="path2993"
         inkscape:connector-curvature="0"
         sodipodi:nodetypes="ccccccccccssssssssssssssssssssssssscsssssssccccsssccccccsssssssssssssssssssssssssssssssssssssssscssssssssssssssssssssscssscssccsssssssssssssssssssss" />
      <path
         style="fill:#d85f27"
         d="m 41.75,67.250294 c 23.2375,-0.1496 61.2625,-0.1496 84.5,0 23.2375,0.1496 4.225,0.272 -42.25,0.272 -46.475,0 -65.4875,-0.1224 -42.25,-0.272 z m 108.65021,-19.16267 c 8.36623,14.883683 -4.81033,-5.88755 -4.81033,-5.88755 3.48194,7.60398 -7.66858,-8.488299 -8.27795,-9.18357 0,0 -15.13405,-3.772923 0.91368,2.241426 9.21737,3.454476 9.09037,7.342781 12.1746,12.829694 z M 79.399704,64.234687 C 78.794541,63.830609 77.766209,62.4875 77.11452,61.25 75.82469,58.800723 71.262111,58.137889 69.287132,60.112868 67.714568,61.685432 66,60.315412 66,57.486296 c 0,-1.970884 0.656128,-2.51876 3.700373,-3.089864 2.583215,-0.484614 3.825742,-0.318086 4.115635,0.551592 C 74.685142,57.555426 80.289029,63 82.103592,63 83.146616,63 84,63.45 84,64 c 0,1.15905 -2.987668,1.311468 -4.600296,0.234687 z M 62.232073,62 C 61.491703,60.81448 61.393743,60 61.991526,60 62.546187,60 63,60.4125 63,60.916667 c 0,0.504166 1.2375,1.36864 2.75,1.921052 l 2.75,1.004386 -2.509453,0.07895 C 64.501306,63.967904 62.973307,63.186905 62.232073,62 z m 28.036959,1.307009 c 0.972967,-0.253543 2.322967,-0.236869 3,0.03705 C 93.946064,63.617986 93.15,63.825431 91.5,63.805051 89.85,63.784672 89.296064,63.560553 90.269032,63.307009 z M 39.632783,59.48543 c -0.942748,-2.456761 -0.76543,-22.285415 0.204649,-22.884957 0.460587,-0.284659 2.218373,0.701284 3.906191,2.190983 L 46.812383,41.5 46.28079,50.25 C 45.836989,57.554948 45.472639,59 44.074598,59 c -0.921029,0 -2.154846,0.480248 -2.741815,1.067217 -0.75629,0.75629 -1.251575,0.58679 -1.7,-0.581787 z M 123,56.436642 c 0,-3.416128 0.13395,-3.550412 3.24181,-3.25 4.46059,0.431168 4.80349,3.145412 0.65858,5.213163 C 125.13617,59.279912 123.53686,60 123.34636,60 123.15586,60 123,58.396489 123,56.436642 z M 86.634859,49.92742 C 83.72131,47.635622 83.156006,44.261101 85.532837,43.349026 87.110396,42.74366 94,48.928812 94,50.950434 94,52.742808 89.402145,52.104168 86.634859,49.92742 z M 64.469882,48.355069 C 62.253317,46.91778 59.129494,43.999908 57.528054,41.870908 55.926614,39.741909 54.027667,38 53.308173,38 c -2.023683,0 -1.544058,-3.803391 0.626086,-4.964816 3.859942,-2.065779 5.566122,-1.1507 9.723106,5.214816 8.541849,13.079983 8.714649,15.229053 0.812517,10.105069 z M 6.5427051,49.069098 C 6.2262742,48.557102 6.4247166,47.855545 6.9836881,47.510081 7.5426596,47.164618 8,47.583524 8,48.440983 8,50.197509 7.399945,50.456142 6.5427051,49.069098 z M 6,42.059017 C 6,41.541476 6.45,40.839919 7,40.5 7.55,40.160081 8,40.583524 8,41.440983 8,42.298442 7.55,43 7,43 6.45,43 6,42.576558 6,42.059017 z m 117.84383,-1.853045 c -0.2807,-1.811716 -0.18255,-3.496631 0.21812,-3.744257 1.14532,-0.707847 1.66717,1.791875 0.94742,4.538285 -0.62432,2.382291 -0.67919,2.344906 -1.16554,-0.794028 z m -21.2281,-1.344208 c -2.29479,-3.276273 -2.05272,-5.062928 0.63427,-4.681315 1.48433,0.210808 2.36389,1.124472 2.58466,2.684886 0.50703,3.58355 -1.31552,4.713924 -3.21893,1.996429 z M 141.5,38 c 0.33992,-0.55 1.29303,-1 2.11803,-1 0.825,0 1.22189,0.45 0.88197,1 -0.33992,0.55 -1.29303,1 -2.11803,1 -0.825,0 -1.22189,-0.45 -0.88197,-1 z M 5.25,35.325576 C 0.76349917,32.195952 3.8045126,30 12.625,30 c 4.040258,0 4.536439,1.733517 0.625,2.183578 C 11.550348,32.379144 10.122971,33.359376 9.5128715,34.75 8.3612367,37.374966 8.216028,37.394572 5.25,35.325576 z m 87.96613,0.829162 c -1.979924,-1.256295 -0.312104,-4.310496 2.161148,-3.95761 2.766316,0.394701 3.635366,4.810223 0.942273,4.787559 -1.000753,-0.0084 -2.397292,-0.381899 -3.103421,-0.829949 z m 38.64465,-1.121469 -2.36078,-1.96673 5.25,-0.03327 c 5.31359,-0.03367 6.22665,0.590081 4.05,2.766731 -1.74891,1.748908 -4.25146,1.472396 -6.93922,-0.766731 z M 167.15789,2 c 0,-1.375 0.22698,-1.9375 0.50439,-1.25 0.27741,0.6875 0.27741,1.8125 0,2.5 -0.27741,0.6875 -0.50439,0.125 -0.50439,-1.25 z M 36.8125,1.316886 c 0.721875,-0.2888706 1.584375,-0.2533443 1.916667,0.078947 0.332291,0.3322917 -0.258334,0.5686404 -1.3125,0.5252193 -1.164943,-0.047984 -1.4019,-0.28494 -0.604167,-0.6041663 z m 40,0 c 0.721875,-0.2888706 1.584375,-0.2533443 1.916667,0.078947 0.332291,0.3322917 -0.258334,0.5686404 -1.3125,0.5252193 -1.164943,-0.047984 -1.4019,-0.28494 -0.604167,-0.6041663 z m 82.94916,-0.024147 c 1.24391,-0.2391932 3.04391,-0.2301119 4,0.020181 0.95609,0.2502924 -0.0617,0.445996 -2.26166,0.4348966 -2.2,-0.011099 -2.98225,-0.2158842 -1.73834,-0.4550776 z"
         id="path2991"
         inkscape:connector-curvature="0"
         sodipodi:nodetypes="sssssscsssssssssssssscssssssssscsssssssssssssssssssssssssssssssssssssssssssssssscsssssssssssssssssssssss" />
      <path
         style="fill:#5d4b3a"
         d="m 41.75,67.250294 c 23.2375,-0.1496 61.2625,-0.1496 84.5,0 23.2375,0.1496 4.225,0.272 -42.25,0.272 -46.475,0 -65.4875,-0.1224 -42.25,-0.272 z m 85.76197,-40.464803 c 3.36344,-16.7189 -1.40142,0.164191 -1.40142,0.164191 0.75739,2.732966 3.73546,9.804552 1.70521,4.372335 l -0.79078,-2.115829 z M 167.15789,2 c 0,-1.375 0.22698,-1.9375 0.50439,-1.25 0.27741,0.6875 0.27741,1.8125 0,2.5 -0.27741,0.6875 -0.50439,0.125 -0.50439,-1.25 z M 36.8125,1.316886 c 0.721875,-0.2888706 1.584375,-0.2533443 1.916667,0.078947 0.332291,0.3322917 -0.258334,0.5686404 -1.3125,0.5252193 -1.164943,-0.047984 -1.4019,-0.28494 -0.604167,-0.6041663 z m 40,0 c 0.721875,-0.2888706 1.584375,-0.2533443 1.916667,0.078947 0.332291,0.3322917 -0.258334,0.5686404 -1.3125,0.5252193 -1.164943,-0.047984 -1.4019,-0.28494 -0.604167,-0.6041663 z m 82.94916,-0.024147 c 1.24391,-0.2391932 3.04391,-0.2301119 4,0.020181 0.95609,0.2502924 -0.0617,0.445996 -2.26166,0.4348966 -2.2,-0.011099 -2.98225,-0.2158842 -1.73834,-0.4550776 z"
         id="path2989"
         inkscape:connector-curvature="0"
         sodipodi:nodetypes="ssssssscsssssssssssssssss" />
    </g>
  </g>
  <g
     inkscape:label="Copie de Text"
     id="g3891"
     inkscape:groupmode="layer"
     style="opacity:0.50199998;display:none"
     sodipodi:insensitive="true">
    <text
       sodipodi:linespacing="125%"
       id="text3893"
       y="64.596863"
       x="10.732984"
       style="font-size:10px;font-style:normal;font-weight:normal;line-height:125%;letter-spacing:0px;word-spacing:0px;fill:#000000;fill-opacity:1;stroke:none;font-family:Sans"
       xml:space="preserve"><tspan
         y="64.596863"
         x="10.732984"
         id="tspan3895"
         sodipodi:role="line" /></text>
    <text
       transform="scale(0.75866444,1.3181058)"
       sodipodi:linespacing="125%"
       id="text3897"
       y="49.758144"
       x="3.4228418"
       style="font-size:13.74547386px;font-style:normal;font-weight:normal;line-height:125%;letter-spacing:0px;word-spacing:0px;opacity:0.7;fill:#8a6445;fill-opacity:1;stroke:none;filter:url(#filter3933);font-family:Sans"
       xml:space="preserve"><tspan
         style="font-size:6.87273693px;fill:#8a6445;fill-opacity:1"
         y="49.758144"
         x="3.4228418"
         id="tspan3899"
         sodipodi:role="line">Freundschaftkreis der Kamerunischen Studenten in Karlsruhe</tspan></text>
  </g>
  <g
     inkscape:groupmode="layer"
     id="layer1"
     inkscape:label="Text"
     sodipodi:insensitive="true"
     style="display:none">
    <text
       xml:space="preserve"
       style="font-size:10px;font-style:normal;font-weight:normal;line-height:125%;letter-spacing:0px;word-spacing:0px;fill:#000000;fill-opacity:1;stroke:none;font-family:Sans"
       x="10.732984"
       y="64.596863"
       id="text3879"
       sodipodi:linespacing="125%"><tspan
         sodipodi:role="line"
         id="tspan3881"
         x="10.732984"
         y="64.596863" /></text>
    <text
       xml:space="preserve"
       style="font-size:13.74547386px;font-style:normal;font-weight:normal;line-height:125%;letter-spacing:0px;word-spacing:0px;fill:#7d6955;fill-opacity:1;stroke:none;font-family:Sans"
       x="3.4228418"
       y="50.75116"
       id="text3883"
       sodipodi:linespacing="125%"
       transform="scale(0.75866444,1.3181058)"><tspan
         sodipodi:role="line"
         id="tspan3885"
         x="3.4228418"
         y="50.75116"
         style="font-size:6.87273693px;fill:#7d6955;fill-opacity:1">Freundschaftkreis der Kamerunischen Studenten in Karlsruhe</tspan></text>
  </g>
</svg>
